<svg id="logo" data-name="logo" xmlns="http://www.w3.org/2000/svg" xmlns:xlink="http://www.w3.org/1999/xlink" viewBox="0 0 40 40">
        <defs>
                <style>.cls-1{fill:url(#linear-gradient);}.cls-2{fill:#259cd7;}.cls-3{fill:#262261;}.cls-4{fill:url(#radial-gradient);}.cls-5{fill:#f4f4ea;}</style>
                <linearGradient id="linear-gradient" x1="4" y1="20" x2="37" y2="20" gradientUnits="userSpaceOnUse"><stop offset="0" stop-color="#f4f4ea" stop-opacity="0.5"/>
                        <stop offset="0.5" stop-color="#f4f4ea"/>
                </linearGradient>
                <radialGradient id="radial-gradient" cx="1.13" cy="22.93" r="21.93" gradientTransform="translate(27.07 -5.36) rotate(45)" gradientUnits="userSpaceOnUse">
                        <stop offset="0.6" stop-color="#f4f4ea" stop-opacity="0"/><stop offset="1" stop-color="#f4f4ea"/>
                </radialGradient>
        </defs>
        <title>logo</title>
        <path class="cls-1" d="M20,.47C28.59.47,35.58,9.23,35.58,20S28.59,39.53,20,39.53,4.42,30.77,4.42,20,11.41.47,20,.47M20,0C11.16,0,4,9,4,20s7.16,20,16,20,17-9,17-20S28.84,0,20,0Z"/>
        <path class="cls-2" d="M5.34,16.6l.26-1c0-.17.08-.36.15-.56L6,14.36c.09-.23.16-.49.28-.76l.38-.83A15.6,15.6,0,0,1,9.16,9a15.43,15.43,0,0,1,4.69-3.54A14.63,14.63,0,0,1,20.66,4c.32,0,.63.06.95.09l.48.05.24,0,.27.06a13.18,13.18,0,0,1,1.87.48c.33.12.67.21,1,.35l.94.44a8.2,8.2,0,0,1,.93.51l.46.28.23.14.22.16a15.85,15.85,0,0,1,3.24,3.06l.68.94a4.23,4.23,0,0,1,.32.49l.3.51.3.51c.1.17.17.36.26.53.17.36.34.72.49,1.09a17.78,17.78,0,0,1,1.12,4.75L35,19.71V20l0,.31,0,.62a9.54,9.54,0,0,1-.11,1.24l-.09.61,0,.31,0,.15v.12a.62.62,0,0,1,0,.13l-.28,1.07-.07.27a2.33,2.33,0,0,1-.09.28l-.22.61-.22.61-.11.3-.13.28c-.17.37-.36.73-.54,1.1a16.75,16.75,0,0,1-2.87,3.82c-.28.27-.58.52-.87.78s-.29.26-.45.37l-.47.33-.47.33a3.91,3.91,0,0,1-.48.31l-1,.55a14.82,14.82,0,0,1-4.14,1.34,13.62,13.62,0,0,1-4.13,0,13.92,13.92,0,0,1-1.94-.4l-.12,0H16l-.07,0-.22-.08-.43-.16L14.83,35a3.57,3.57,0,0,1-.43-.17l-.88-.42c-.14-.07-.29-.13-.43-.21L12.7,34l-.78-.48L11.2,33A13.16,13.16,0,0,1,9.87,31.8a6.52,6.52,0,0,1-.59-.62l-.56-.63a16.69,16.69,0,0,1-2.88-5.3A16.49,16.49,0,0,1,5,20.65l0-.92c0-.29,0-.56,0-.81l0-.7c0-.21.06-.4.08-.57Zm0,0-.16,1.05c0,.17-.06.36-.08.57l0,.7c0,.25,0,.52,0,.81l0,.92a14.62,14.62,0,0,0,1,4.5A14.36,14.36,0,0,0,9.24,30a13.71,13.71,0,0,0,2.54,2l.72.41.76.34.38.17c.13.06.26.09.39.13l.78.26a3,3,0,0,0,.42.11l.44.1.45.1.22,0h.17a12.05,12.05,0,0,0,1.74.12,12.27,12.27,0,0,0,3.5-.49l.86-.28c.28-.1.56-.24.83-.35l.42-.18.4-.22c.26-.15.54-.29.8-.45a14.9,14.9,0,0,0,2.84-2.39l.61-.73a2.86,2.86,0,0,0,.28-.38l.27-.39.27-.39c.09-.13.16-.28.24-.41s.32-.55.47-.84.26-.59.4-.88l.1-.22.07-.21.15-.43.15-.42a1.49,1.49,0,0,0,.07-.24l.07-.27.27-1.07c0,.17,0,0,0,.06v-.09l0-.12,0-.24.08-.48a6.64,6.64,0,0,0,.1-1,17.32,17.32,0,0,0,0-1.95c0-.32-.07-.64-.1-1,0-.16,0-.32-.06-.48l-.1-.48-.09-.48a3,3,0,0,0-.11-.47l-.27-.93a16.06,16.06,0,0,0-1.65-3.44c-.17-.27-.37-.51-.55-.77l-.28-.38L28.08,10c-.21-.23-.4-.48-.62-.69l-.67-.63-.17-.16-.18-.14-.36-.28a6.64,6.64,0,0,0-.73-.54l-.76-.48c-.25-.16-.51-.26-.76-.39A11.76,11.76,0,0,0,22.15,6L22,6,22,6h0l-.21-.05-.42-.1c-.28-.06-.55-.16-.83-.19l-.84-.12c-.14,0-.28,0-.42-.05h-.42L18,5.4l-.81.06a12.84,12.84,0,0,0-3.08.67,13.26,13.26,0,0,0-4.77,3,13.79,13.79,0,0,0-2.66,3.65l-.4.81c-.11.26-.19.52-.28.75L5.76,15c-.07.2-.11.39-.15.56Z"/>
        <path class="cls-3" d="M9.44,9.44l.72-.69c.12-.11.24-.25.4-.37l.51-.4c.19-.14.38-.31.6-.47L12.38,7a13.36,13.36,0,0,1,4-1.69,13.09,13.09,0,0,1,5.55-.15,13.24,13.24,0,0,1,6,2.94c.24.19.44.42.67.63l.33.32.17.16.16.19a14.08,14.08,0,0,1,1.15,1.5,14.76,14.76,0,0,1,1.77,3.54l.3,1c.1.33.15.67.23,1l.11.51.07.52c0,.34.1.69.12,1a17.48,17.48,0,0,1-.24,4.21,16.49,16.49,0,0,1-1.34,4A16.32,16.32,0,0,1,29,30.29a16.21,16.21,0,0,1-1.53,1.43l-.41.33-.21.17-.22.14-.87.57a14.36,14.36,0,0,1-3.81,1.51,14,14,0,0,1-4,.26c-.33,0-.66-.09-1-.13l-.49-.08L16,34.37c-.32-.09-.64-.15-.95-.26l-.92-.34a13,13,0,0,1-3.32-2,14,14,0,0,1-1.4-1.27l-.18-.18-.15-.18-.3-.35c-.19-.24-.4-.45-.58-.71a15.23,15.23,0,0,1-2.74-6.42A15.84,15.84,0,0,1,5.6,16.8a15.33,15.33,0,0,1,1.58-4.22l.44-.76c.14-.23.3-.44.44-.64l.38-.54c.12-.17.25-.3.35-.42l.65-.76Zm0,0-.64.77c-.1.13-.23.26-.34.42l-.37.55c-.13.2-.28.4-.42.64l-.41.77a14.31,14.31,0,0,0-1.41,4.22A15.48,15.48,0,0,0,8.67,28.69c.16.24.38.46.57.7l.3.35.15.17.15.14a14,14,0,0,0,4.51,3.08l.87.33c.29.11.6.17.9.26l.46.12.47.08c.31,0,.62.11.94.14a13.8,13.8,0,0,0,3.84-.2,13.84,13.84,0,0,0,3.7-1.37A15,15,0,0,0,28.74,30a15.89,15.89,0,0,0,2.41-3.37,16.23,16.23,0,0,0,1.36-4,16.24,16.24,0,0,0,.2-4.15c0-.34-.09-.68-.13-1,0-.17,0-.34-.08-.5l-.12-.49c-.09-.33-.15-.66-.25-1l-.33-.94a15,15,0,0,0-3-4.8l-.14-.16-.16-.15-.32-.31c-.22-.2-.42-.42-.65-.6a14.16,14.16,0,0,0-5.74-2.87,13.05,13.05,0,0,0-5.4-.09,12.34,12.34,0,0,0-4,1.51l-.72.44c-.22.15-.41.31-.6.45l-.51.4c-.16.12-.28.26-.4.37l-.72.69Z"/>
        <path class="cls-3" d="M31.35,18.19l.06.92c0,.15,0,.31,0,.5l0,.61c0,.22,0,.46,0,.7l-.09.79a14.24,14.24,0,0,1-1.07,3.88,13.78,13.78,0,0,1-2.9,4.27,12.3,12.3,0,0,1-5.18,3c-.25.08-.52.12-.79.18l-.4.08-.2,0h-.22a11.5,11.5,0,0,1-1.63.1,11.67,11.67,0,0,1-3.41-.51l-.84-.29c-.28-.1-.55-.24-.82-.36L13.41,32,13,31.74c-.26-.16-.53-.3-.79-.48a14.05,14.05,0,0,1-2.8-2.53,14.76,14.76,0,0,1-2-3.34L7,24.47l-.09-.23L6.87,24l-.14-.48a7.51,7.51,0,0,1-.24-1L6.41,22l0-.25,0-.12v-.09a.44.44,0,0,1,0-.07l-.08-1c0-.16,0-.31,0-.49V18.74l0-.25.11-1a15.84,15.84,0,0,1,1.11-3.86,14.76,14.76,0,0,1,2.08-3.33c.21-.25.44-.47.65-.71l.33-.34.36-.31c.24-.2.47-.42.72-.6l.76-.53a12,12,0,0,1,3.28-1.47A12.15,12.15,0,0,1,17.34,6l.1,0h.35l.39,0,.39,0a3,3,0,0,1,.4,0l.85,0c.14,0,.28,0,.42,0l.4.07.78.14.76.21a12,12,0,0,1,2.73,1.22,13.25,13.25,0,0,1,3.8,3.58,14.18,14.18,0,0,1,1.86,3.59l.25.76c.07.24.12.47.17.68l.14.59c0,.18.06.35.08.5l.14.91Zm-.19,0L31,17.32c0-.14,0-.31-.1-.48l-.17-.57c-.06-.2-.12-.43-.2-.66l-.29-.72-.16-.39-.21-.39c-.15-.26-.27-.55-.45-.82l-.56-.83c-.21-.27-.45-.54-.68-.83A11.79,11.79,0,0,0,24.33,8.8l-.6-.24a4.51,4.51,0,0,0-.62-.22A11.34,11.34,0,0,0,21.81,8l-.67-.13-.69-.06-.35,0h-1a2.41,2.41,0,0,0-.37,0l-.39,0-.39,0-.2,0h0l-.09,0a10.39,10.39,0,0,0-1.44.35,11.1,11.1,0,0,0-2.78,1.29,12.5,12.5,0,0,0-2.46,2.08A13.48,13.48,0,0,0,9,14.44a13.33,13.33,0,0,0-1.09,3.32l-.12.88,0,.22v.22l0,.43,0,.43a4.63,4.63,0,0,0,0,.47l.05,1c0-.07,0,0,0,0v.08l0,.11,0,.22.07.44a6.29,6.29,0,0,0,.18.88l.11.43.05.22.07.21.3.84a13.4,13.4,0,0,0,1.75,3,12.87,12.87,0,0,0,2.47,2.36c.23.17.47.3.7.45l.35.22.37.18c.25.12.49.26.74.36l.76.29a11.31,11.31,0,0,0,4.66.53h.17l.19,0,.37-.06c.25,0,.5-.07.74-.14a12.17,12.17,0,0,0,5-2.57,12.51,12.51,0,0,0,3-4c.15-.35.31-.68.44-1l.33-1c.1-.32.15-.63.22-.93l.1-.44.05-.42.1-.78c0-.25,0-.48,0-.69v-.59c0-.18,0-.35,0-.5l-.07-.91Z"/>
        <path class="cls-4" d="M33.85,6.15c4.54,4.54,2,14.44-5.61,22.08S10.69,38.39,6.15,33.85c-3.09-3.09-3-8.76.18-14.81a30.48,30.48,0,0,1,5.43-7.27,30.92,30.92,0,0,1,6.55-5C24.56,3.18,30.65,3,33.85,6.15m.3-.3c-3.43-3.43-9.76-3-16,.54a31.53,31.53,0,0,0-6.66,5.12A31.16,31.16,0,0,0,6,18.9c-3.16,6-3.43,12-.14,15.24,4.69,4.69,15.82,3.15,23.63-4.66s9.34-18.94,4.66-23.63Z"/>
        <path class="cls-5" d="M20,.5A19.5,19.5,0,1,1,.5,20,19.52,19.52,0,0,1,20,.5M20,0A20,20,0,1,0,40,20,20,20,0,0,0,20,0Z"/>
</svg>
