<svg id="Layer_1" data-name="Layer 1" xmlns="http://www.w3.org/2000/svg" viewBox="0 0 740 237.4015"><defs><style>.cls-1{fill:#fff;}.cls-2{fill:none;}.cls-3{fill:#686969;}.cls-4{fill:#279dd8;}.cls-5{fill:#79c043;}</style></defs><title>TypTap</title><path class="cls-1" d="M312.55268,128.57628a142.91532,142.91532,0,0,1,15.04543,1.5669,26.62935,26.62935,0,0,1,.47017,8.61945H282.933A37.859,37.859,0,0,1,284.971,130.457a105.50019,105.50019,0,0,1,13.16376-2.03807V39.55979H272.74663c-.31378,3.605-1.41051,10.50013-2.03707,13.32115a44.49623,44.49623,0,0,1-9.4034.94034V30h88.07615V54.44783a44.52078,44.52078,0,0,1-9.55979-1.09673,121.36468,121.36468,0,0,1-2.03807-13.79132H312.55268Z" transform="translate(-30 -30)"/><path class="cls-1" d="M398.74616,130.14318c.94034-3.76136,2.97741-11.91064,4.23153-15.672l7.8355-24.918a113.96512,113.96512,0,0,1,5.79843-15.20182,43.429,43.429,0,0,1-9.4024-2.03707,26.65513,26.65513,0,0,1-1.25412-7.99289h29.93348a32.152,32.152,0,0,1-1.5679,8.61945,38.2544,38.2544,0,0,1-7.36533,1.41051l-8.93323,26.01573c-4.38792,12.851-11.91064,34.63418-17.70907,46.231-7.36533,14.889-17.55267,24.76161-31.65677,29.77709a20.91193,20.91193,0,0,1-5.79843-11.59785c14.1041-3.91775,23.82127-12.69359,28.36558-23.03732L365.67888,75.1353a38.28982,38.28982,0,0,1-8.14928-2.66463,34.14815,34.14815,0,0,1-1.5679-8.14928h35.41813a34.08714,34.08714,0,0,1-1.25312,8.14928,75.78,75.78,0,0,1-11.44047,1.88068,103.904,103.904,0,0,1,5.642,13.16475l9.87257,27.42524c1.25412,3.44758,2.821,11.28408,3.44858,15.20182Z" transform="translate(-30 -30)"/><path class="cls-1" d="M468.64008,164.93475a83.54223,83.54223,0,0,1,14.888,2.821,21.9117,21.9117,0,0,1,.31378,7.20894H442.78174a21.75966,21.75966,0,0,1,2.19446-7.05255,58.03378,58.03378,0,0,1,10.03-2.97741V73.09823H443.4083a18.13585,18.13585,0,0,1,2.821-8.30667,41.07485,41.07485,0,0,1,13.00836-2.19346,27.03677,27.03677,0,0,1,7.36533.94034V73.7248h1.5669c3.91875-6.2686,9.87357-12.067,23.03732-12.067,13.79132,0,29.6197,9.4024,29.6197,37.769,0,25.23079-15.82839,42.00051-38.39554,42.00051-4.54431,0-10.50013-1.41051-13.79132-3.76136Zm-.15639-35.10535a41.8288,41.8288,0,0,0,13.00737,2.19446c17.2389,0,25.07439-12.38081,25.07439-30.56,0-18.8058-8.46206-29.46331-20.21631-29.46331a20.62818,20.62818,0,0,0-17.86546,9.55979Z" transform="translate(-30 -30)"/><path class="cls-1" d="M575.36166,128.57628a142.94332,142.94332,0,0,1,15.04543,1.5669,26.65722,26.65722,0,0,1,.47017,8.61945H545.742A37.91335,37.91335,0,0,1,547.779,130.457a105.546,105.546,0,0,1,13.16475-2.03807V39.55979H535.55561c-.31378,3.605-1.41051,10.50013-2.03707,13.32115a44.49623,44.49623,0,0,1-9.4034.94034V30H612.1903V54.44783a44.53585,44.53585,0,0,1-9.55979-1.09673,121.59254,121.59254,0,0,1-2.03707-13.79132H575.36166Z" transform="translate(-30 -30)"/><path class="cls-1" d="M661.085,129.51662c-4.07514,7.67911-12.53819,11.91064-21.94059,11.91064-11.44047,0-22.25437-6.58238-22.25437-21.00025,0-16.14216,13.63492-24.44883,29.14953-24.44883A38.94716,38.94716,0,0,1,660.6148,98.6428V90.17974c0-11.59686-5.01548-17.55168-14.889-17.55168-6.73877,0-17.39529,3.91775-22.87994,7.67911a13.64124,13.64124,0,0,1-.78395-5.32926,17.58767,17.58767,0,0,1,1.72429-7.8355c5.17087-2.97741,17.2389-5.48465,25.54456-5.48465,17.0825,0,24.60522,8.30567,24.60522,29.77609v30.40365c0,3.1338.783,6.89516,2.03707,8.14928a49.03742,49.03742,0,0,0,10.81291-1.88068,6.99311,6.99311,0,0,1,.15739,1.72329,16.67428,16.67428,0,0,1-1.5679,7.05255c-3.44758,2.19446-11.59686,4.54531-16.92512,4.54531-3.1348-1.88068-6.11221-6.89616-6.58238-11.91064Zm-.31378-23.97866a51.21814,51.21814,0,0,0-10.9703-1.25312c-12.22441,0-19.11957,5.48465-19.11957,13.79132,0,8.61945,6.73877,12.5372,14.26149,12.5372,6.11221,0,12.69359-2.97741,15.82839-7.67911Z" transform="translate(-30 -30)"/><path class="cls-1" d="M717.81314,164.93475a83.54223,83.54223,0,0,1,14.888,2.821,21.9117,21.9117,0,0,1,.31378,7.20894H691.9548a21.75966,21.75966,0,0,1,2.19446-7.05255,58.04834,58.04834,0,0,1,10.029-2.97741V73.09823H692.58136a18.13584,18.13584,0,0,1,2.821-8.30667,41.06845,41.06845,0,0,1,13.00737-2.19346,27.039,27.039,0,0,1,7.36633.94034V73.7248h1.5669c3.91775-6.2686,9.87357-12.067,23.03732-12.067,13.79132,0,29.6197,9.4024,29.6197,37.769,0,25.23079-15.82839,42.00051-38.39554,42.00051-4.54531,0-10.50013-1.41051-13.79132-3.76136Zm-.15639-35.10535a41.8288,41.8288,0,0,0,13.00737,2.19446c17.2389,0,25.07439-12.38081,25.07439-30.56,0-18.8058-8.46206-29.46331-20.21631-29.46331a20.62818,20.62818,0,0,0-17.86546,9.55979Z" transform="translate(-30 -30)"/><polygon class="cls-2" points="93.853 94.551 142.851 45.553 93.853 94.551 93.853 94.551"/><path class="cls-3" d="M32.93,215.47348a10.00311,10.00311,0,0,0,0,14.1468l34.85121,34.85133a10.00333,10.00333,0,0,0,14.1468,0l41.92467-41.92467-48.998-48.99814Z" transform="translate(-30 -30)"/><path class="cls-3" d="M172.8508,173.5488l41.92467-41.92467a10.00344,10.00344,0,0,0,0-14.1468L172.8508,75.55265l-48.99808,48.99808Z" transform="translate(-30 -30)"/><path class="cls-4" d="M172.8508,75.55265,130.92613,33.628a10.00322,10.00322,0,0,0-14.1468,0L74.85465,75.55265l48.99808,48.99808Z" transform="translate(-30 -30)"/><path class="cls-5" d="M172.8508,173.5488l-48.99808-48.99808h0L74.85465,75.55265,32.93,117.47733a10.00311,10.00311,0,0,0,0,14.1468L74.85465,173.5488l48.998,48.99814,41.92467,41.92467a10.00348,10.00348,0,0,0,14.14693,0l34.85121-34.85133a10.00344,10.00344,0,0,0,0-14.1468Z" transform="translate(-30 -30)"/><path class="cls-1" d="M261.30616,265.45766a27.04053,27.04053,0,0,1,1.35374-5.96878,64.84482,64.84482,0,0,1,8.784-1.4645v-63.5275a81.18392,81.18392,0,0,1-8.33475-.78763,24.55955,24.55955,0,0,1-.2246-6.42105H291.27a17.09911,17.09911,0,0,1-.22768,6.30722,77.6692,77.6692,0,0,1-9.23622.90147v63.63826a88.504,88.504,0,0,1,10.02693,1.12607,17.70389,17.70389,0,0,1,.4492,4.39351,10.19766,10.19766,0,0,1-.11384,1.80294Z" transform="translate(-30 -30)"/><path class="cls-1" d="M320.21863,258.58741a39.79464,39.79464,0,0,1,8.22092,1.4645,17.14976,17.14976,0,0,1,.22768,5.40575H301.63234a15.72454,15.72454,0,0,1,1.57834-5.06731,41.44282,41.44282,0,0,1,7.20869-2.14138V218.26431h-8.224a13.0541,13.0541,0,0,1,2.02754-5.97186,28.42167,28.42167,0,0,1,9.35006-1.57527,19.526,19.526,0,0,1,5.295.6738v8.224H319.994c2.02754-3.83048,7.99632-9.57466,18.134-9.57466,8.89779,0,16.78335,2.81517,16.78335,20.27539,0,9.46082-.22768,18.697-.67687,28.27171a49.74142,49.74142,0,0,1,9.12239,1.4645,15.99061,15.99061,0,0,1,.33844,3.492,10.81907,10.81907,0,0,1-.11384,1.9137H336.88814a15.57466,15.57466,0,0,1,1.57834-5.06731,38.69423,38.69423,0,0,1,6.418-2.14138V231.891c0-8.67319-2.70133-14.1897-10.58689-14.1897-5.74418,0-11.713,4.05508-14.07894,7.20869Z" transform="translate(-30 -30)"/><path class="cls-1" d="M401.20943,217.249a18.30148,18.30148,0,0,0-6.64565-1.35067c-5.858,0-9.23622,2.70441-9.23622,6.87025,0,12.61443,26.24417,8.787,26.24417,28.38555,0,11.713-9.79926,16.21724-20.27539,16.21724a34.30469,34.30469,0,0,1-17.23254-4.27968,24.85369,24.85369,0,0,1-.563-5.40575,32.55834,32.55834,0,0,1,1.12607-7.99632,32.76088,32.76088,0,0,1,8.11016,1.01223v7.77172a17.79274,17.79274,0,0,0,9.46082,2.59057c5.63034,0,9.46082-3.37821,9.46082-8.44552,0-13.40514-26.46877-8.56243-26.46877-28.49938,0-8.22092,7.54712-14.07894,18.697-14.07894a43.52643,43.52643,0,0,1,15.88188,2.929,17.12032,17.12032,0,0,1,.2246,3.492,37.14314,37.14314,0,0,1-1.23991,9.12239,16.51968,16.51968,0,0,1-7.544-1.6891Z" transform="translate(-30 -30)"/><path class="cls-1" d="M463.38626,218.26431h-8.11016a13.0541,13.0541,0,0,1,2.02754-5.97186,29.98264,29.98264,0,0,1,10.13769-1.57527,23.0228,23.0228,0,0,1,5.74418.6738v39.20011a32.8246,32.8246,0,0,0,.90147,7.99632h8.55935a6.85013,6.85013,0,0,1,.11384,1.4645,13.9499,13.9499,0,0,1-.90147,4.50427c-4.05508,1.35067-12.0514,2.25214-15.43268,2.25214a23.51807,23.51807,0,0,1-2.25214-8.89779h-.563c-2.02754,3.83048-7.88556,9.46082-17.90941,9.46082-8.784,0-16.55567-2.81517-16.55567-20.27231,0-9.4639.11076-19.37392.563-28.83474h-8.56243a14.01462,14.01462,0,0,1,2.02754-5.858,30.45077,30.45077,0,0,1,10.25153-1.6891,23.0228,23.0228,0,0,1,5.74418.6738v34.12973c0,8.55935,2.70133,14.07894,10.36229,14.07894,5.63034,0,11.48836-3.71664,13.85434-6.87025Z" transform="translate(-30 -30)"/><path class="cls-1" d="M510.69961,222.09171a15.0628,15.0628,0,0,1,14.642-12.0514,16.03,16.03,0,0,1,5.06731.90147,14.649,14.649,0,0,1,1.4645,6.75949,12.43493,12.43493,0,0,1-.33844,3.03977,15.432,15.432,0,0,0-7.65788-1.9137c-5.18115,0-10.1377,2.81517-12.95287,9.23622V258.249a55.93687,55.93687,0,0,1,11.14993,2.02754,15.67388,15.67388,0,0,1,.2246,5.18115H492.33792a15.72454,15.72454,0,0,1,1.57834-5.06731,41.44282,41.44282,0,0,1,7.20869-2.14138V218.26431h-8.224a13.0541,13.0541,0,0,1,2.02754-5.97186,29.50652,29.50652,0,0,1,9.35006-1.57527,19.526,19.526,0,0,1,5.295.6738v10.70073Z" transform="translate(-30 -30)"/><path class="cls-1" d="M571.63654,258.812c-2.929,5.51958-9.01163,8.55935-15.768,8.55935-8.224,0-15.99571-4.72887-15.99571-15.09117,0-11.6022,9.79926-17.571,20.95226-17.571a27.96892,27.96892,0,0,1,10.47305,1.9137V230.5403c0-8.33475-3.6028-12.61443-10.70073-12.61443-4.84271,0-12.50059,2.81517-16.44491,5.51958a9.84573,9.84573,0,0,1-.563-3.83048,12.61521,12.61521,0,0,1,1.23991-5.63034c3.71664-2.14138,12.38983-3.94432,18.35861-3.94432,12.27907,0,17.68482,5.96878,17.68482,21.40146v21.85066c0,2.25214.563,4.95655,1.4645,5.858a35.38033,35.38033,0,0,0,7.77172-1.35067,4.97564,4.97564,0,0,1,.11384,1.23683,12.02869,12.02869,0,0,1-1.12607,5.07039,28.54193,28.54193,0,0,1-12.16523,3.26437c-2.25214-1.35067-4.39351-4.95347-4.73195-8.55935Zm-.2246-17.23254a36.81859,36.81859,0,0,0-7.88556-.90147c-8.784,0-13.7405,3.94124-13.7405,9.9131,0,6.19338,4.84271,9.00855,10.24846,9.00855,4.39351,0,9.12546-2.1383,11.3776-5.51958Z" transform="translate(-30 -30)"/><path class="cls-1" d="M616.80543,258.58741a39.78864,39.78864,0,0,1,8.224,1.4645,17.15234,17.15234,0,0,1,.2246,5.40575h-27.0318a15.64454,15.64454,0,0,1,1.57527-5.06731,41.44282,41.44282,0,0,1,7.20869-2.14138V218.26431h-8.22092a13.01836,13.01836,0,0,1,2.02754-5.97186,28.40234,28.40234,0,0,1,9.347-1.57527,19.49394,19.49394,0,0,1,5.295.6738v8.224h1.12607c2.02754-3.83048,7.99632-9.57466,18.134-9.57466,8.89779,0,16.78335,2.81517,16.78335,20.27539,0,9.46082-.2246,18.697-.67687,28.27171a49.73373,49.73373,0,0,1,9.12546,1.4645,15.99061,15.99061,0,0,1,.33844,3.492,10.81906,10.81906,0,0,1-.11384,1.9137H633.478a15.64454,15.64454,0,0,1,1.57527-5.06731,38.63391,38.63391,0,0,1,6.42105-2.14138V231.891c0-8.67319-2.70441-14.1897-10.58689-14.1897-5.74726,0-11.716,4.05508-14.082,7.20869Z" transform="translate(-30 -30)"/><path class="cls-1" d="M703.88192,218.26431a14.47544,14.47544,0,0,0-6.53489-1.6891c-9.68542,0-16.66951,6.418-16.66951,21.17378,0,14.86964,7.43328,21.85066,17.571,21.85066a48.02314,48.02314,0,0,0,13.85434-2.70133,13.47293,13.47293,0,0,1-1.57834,6.418,39.88114,39.88114,0,0,1-16.66951,4.05508c-14.52813,0-23.87819-11.713-23.87819-27.481,0-17.46022,11.14993-29.85005,27.59484-29.85005a27.11967,27.11967,0,0,1,14.75581,4.05508c.11384,1.12607.2246,2.929.2246,4.05508a27.13031,27.13031,0,0,1-1.57527,9.57466,19.00706,19.00706,0,0,1-7.09485-1.4645Z" transform="translate(-30 -30)"/><path class="cls-1" d="M735.19648,240.00113c.2246,12.0514,7.77172,19.48776,18.35861,19.48776a51.68433,51.68433,0,0,0,15.768-3.15361,12.16123,12.16123,0,0,1-1.46143,6.418,38.84316,38.84316,0,0,1-17.79865,4.61811c-16.10647,0-25.3427-12.0514-25.3427-27.59484,0-16.55875,10.25153-29.73621,26.01957-29.73621,13.5159,0,19.26008,9.79926,19.26008,23.992a54.72847,54.72847,0,0,1-.33844,5.96878Zm24.77966-6.53181c.78763-7.77172-1.4645-17.23254-10.92533-17.23254-7.9994,0-13.18054,6.981-13.85434,17.23254Z" transform="translate(-30 -30)"/><path class="cls-1" d="M757.80962,38.52872v.84064h-1.625v4.24071H755.1757V39.36936h-1.62529v-.84064Zm5.4923,5.08135-.18673-2.989c-.01875-.39233-.01875-.878-.03724-1.41982h-.05625c-.13073.44832-.28021,1.04612-.4297,1.51318l-.91538,2.82089h-1.04612l-.91538-2.89563c-.09324-.39233-.24272-.99012-.355-1.43844h-.056c0,.46707-.01875.95275-.03724,1.41982l-.187,2.989h-.97138l.3737-5.08135h1.51306l.87814,2.48456c.112.39233.20547.766.33621,1.28909h.01875c.13073-.46707.24272-.89676.355-1.27034l.87789-2.50331h1.45732l.3922,5.08135Z" transform="translate(-30 -30)"/><path class="cls-1" d="M758.9306,32.59439a8.475,8.475,0,1,1-8.475,8.475,8.475,8.475,0,0,1,8.475-8.475m0-2.59439A11.06939,11.06939,0,1,0,770,41.06939,11.08193,11.08193,0,0,0,758.9306,30Z" transform="translate(-30 -30)"/></svg>