<?xml version="1.0" encoding="utf-8"?>
<!-- Generator: Adobe Illustrator 21.0.1, SVG Export Plug-In . SVG Version: 6.00 Build 0)  -->
<svg version="1.1" id="Layer_1" xmlns="http://www.w3.org/2000/svg" xmlns:xlink="http://www.w3.org/1999/xlink" x="0px" y="0px"
	 viewBox="0 0 200 200" style="enable-background:new 0 0 200 200;" xml:space="preserve">
<style type="text/css">
	.st0{fill:#686868;}
	.st1{fill:#199EE0;}
	.st2{fill:#79BF2E;}
	.st3{fill:url(#SVGID_1_);}
	.st4{fill:url(#SVGID_2_);}
</style>
<path class="st0" d="M55.2,192.2l-27.9-27.9c-3.1-3.1-3.1-8.2,0-11.3L139.2,41.3l33.5,33.5c3.1,3.1,3.1,8.2,0,11.3L66.5,192.2
	C63.4,195.4,58.3,195.4,55.2,192.2z"/>
<path class="st1" d="M100,80.4L60.8,41.3L94.3,7.8c3.1-3.1,8.2-3.1,11.3,0l33.5,33.5L100,80.4z"/>
<path class="st2" d="M133.5,192.2L27.3,86.1c-3.1-3.1-3.1-8.2,0-11.3l33.5-33.5l111.8,111.8c3.1,3.1,3.1,8.2,0,11.3l-27.9,27.9
	C141.7,195.4,136.6,195.4,133.5,192.2z"/>
<linearGradient id="SVGID_1_" gradientUnits="userSpaceOnUse" x1="149.6711" y1="-138.069" x2="149.6711" y2="-141.8807" gradientTransform="matrix(0.5831 0.5831 -0.6661 0.6661 -79.2156 85.1449)">
	<stop  offset="0" style="stop-color:#000000;stop-opacity:0.3"/>
	<stop  offset="0.95" style="stop-color:#000000;stop-opacity:0"/>
</linearGradient>
<polygon class="st3" points="139.2,119.6 60.8,41.3 63.4,38.7 141.7,117.1 "/>
<linearGradient id="SVGID_2_" gradientUnits="userSpaceOnUse" x1="-564.1789" y1="-254.3383" x2="-564.1789" y2="-258.1501" gradientTransform="matrix(-0.2916 0.2916 -0.6661 -0.6661 -214.3442 55.9738)">
	<stop  offset="0" style="stop-color:#000000;stop-opacity:0.3"/>
	<stop  offset="0.95" style="stop-color:#000000;stop-opacity:0"/>
</linearGradient>
<polygon class="st4" points="100,80.4 139.2,41.3 141.7,43.8 102.5,83 "/>
</svg>
