<svg version="1.1" id="Layer_1" xmlns="http://www.w3.org/2000/svg" xmlns:xlink="http://www.w3.org/1999/xlink" x="0px" y="0px"
	 viewBox="0 0 203.1 143.7" style="enable-background:new 0 0 203.1 143.7;" xml:space="preserve">
<style type="text/css">
	.white{fill:#ffffff;}
</style>
<title>TypTap-Flood-Insurance-logo</title>
<path class="white" d="M101,120.3V119h5.1v1.2l-1.6,0.3v11.2l1.6,0.3v1.2H101V132l1.6-0.3v-11.2L101,120.3z"/>
<path class="white" d="M107.3,132l1.6-0.3v-7.5l-1.6-0.3v-1.2h3.3l0.1,1.6c0.3-0.5,0.8-1,1.3-1.3c0.6-0.3,1.2-0.5,1.8-0.5
	c1-0.1,1.9,0.3,2.6,1c0.7,0.9,1,2,0.9,3.1v5.2l1.6,0.3v1.2H114V132l1.6-0.3v-5.1c0.1-0.7-0.1-1.4-0.6-2c-0.5-0.4-1.1-0.6-1.7-0.6
	c-0.5,0-1,0.1-1.5,0.4c-0.4,0.3-0.8,0.6-1,1.1v6.2l1.6,0.3v1.2h-5.1L107.3,132z"/>
<path class="white" d="M128.6,126h-1.4l-0.3-1.3c-0.3-0.2-0.6-0.4-0.9-0.5c-0.4-0.1-0.8-0.2-1.2-0.2c-0.5,0-1.1,0.1-1.5,0.4
	c-0.3,0.3-0.5,0.7-0.5,1.1c0,0.4,0.1,0.7,0.4,1c0.5,0.3,1.2,0.6,1.8,0.6c1.1,0.2,2.1,0.6,3,1.2c0.6,0.5,1,1.2,1,2
	c0,0.9-0.4,1.8-1.1,2.3c-0.9,0.6-1.9,0.9-3,0.9c-0.7,0-1.5-0.1-2.2-0.3c-0.6-0.2-1.2-0.4-1.7-0.8l0-2.4h1.4l0.4,1.4
	c0.3,0.2,0.6,0.4,0.9,0.4c0.4,0.1,0.8,0.1,1.2,0.1c0.6,0,1.1-0.1,1.6-0.4c0.4-0.2,0.6-0.7,0.6-1.1c0-0.4-0.2-0.8-0.5-1
	c-0.6-0.4-1.2-0.6-1.8-0.7c-1-0.2-2-0.6-2.9-1.1c-0.6-0.4-1-1.2-1-2c0-0.9,0.4-1.7,1.1-2.2c0.8-0.6,1.8-1,2.9-0.9
	c0.7,0,1.5,0.1,2.2,0.3c0.6,0.2,1.1,0.5,1.6,0.9L128.6,126z"/>
<path class="white" d="M138.2,131.7c-0.3,0.5-0.7,1-1.3,1.3c-0.6,0.3-1.2,0.5-1.8,0.5c-1,0.1-2-0.4-2.7-1.1c-0.7-1-1.1-2.2-1-3.4v-4.7
	l-1.2-0.3v-1.2h3.1v6.2c-0.1,0.8,0.1,1.6,0.5,2.3c0.4,0.4,1,0.7,1.6,0.6c0.6,0,1.2-0.1,1.7-0.4c0.4-0.3,0.8-0.7,1-1.2v-6.1l-1.4-0.3
	v-1.2h3.3v9.1l1.2,0.3v1.2h-2.9L138.2,131.7z"/>
<path class="white" d="M142.8,123.9v-1.2h3.3l0.2,1.5c0.3-0.5,0.6-0.9,1.1-1.3c0.4-0.3,1-0.5,1.5-0.5c0.2,0,0.3,0,0.5,0
	c0.1,0,0.2,0,0.4,0.1l-0.3,1.8l-1.1-0.1c-0.5,0-0.9,0.1-1.3,0.4c-0.4,0.3-0.6,0.6-0.8,1v6.1l1.6,0.3v1.2h-5.1V132l1.6-0.3v-7.5
	L142.8,123.9z"/>
<path class="white" d="M158,133.3c-0.1-0.3-0.1-0.5-0.1-0.8c0-0.2-0.1-0.5-0.1-0.7c-0.4,0.5-0.9,0.9-1.4,1.2c-1.4,0.7-3,0.6-4.3-0.3
	c-0.6-0.6-0.9-1.4-0.9-2.3c0-0.9,0.4-1.8,1.2-2.3c1-0.6,2.2-0.9,3.3-0.8h2V126c0-0.6-0.2-1.1-0.6-1.5c-0.5-0.4-1-0.6-1.6-0.5
	c-0.4,0-0.9,0.1-1.3,0.2c-0.3,0.1-0.6,0.3-0.9,0.5l-0.2,1.1h-1.5v-2.1c0.5-0.4,1.1-0.7,1.7-0.9c0.7-0.2,1.5-0.4,2.2-0.3
	c1,0,2.1,0.3,2.9,0.9c0.8,0.7,1.2,1.6,1.1,2.6v5.1c0,0.1,0,0.3,0,0.4c0,0.1,0,0.3,0,0.4l0.8,0.1v1.2L158,133.3z M154.9,131.9
	c0.6,0,1.2-0.2,1.7-0.5c0.5-0.3,0.9-0.6,1.1-1.1v-1.7h-2.1c-0.7,0-1.3,0.2-1.9,0.5c-0.4,0.3-0.7,0.8-0.7,1.3c0,0.4,0.1,0.8,0.4,1.1
	C154,131.8,154.4,131.9,154.9,131.9L154.9,131.9z"/>
<path class="white" d="M161.8,132l1.6-0.3v-7.5l-1.6-0.3v-1.2h3.3l0.1,1.6c0.3-0.5,0.8-1,1.3-1.3c0.6-0.3,1.2-0.5,1.8-0.5
	c1-0.1,1.9,0.3,2.6,1c0.7,0.9,1,2,0.9,3.1v5.2l1.6,0.3v1.2h-5.1V132l1.6-0.3v-5.1c0.1-0.7-0.1-1.4-0.6-2c-0.5-0.4-1.1-0.6-1.7-0.6
	c-0.5,0-1,0.1-1.5,0.4c-0.4,0.3-0.8,0.6-1,1.1v6.2l1.6,0.3v1.2h-5.1V132z"/>
<path class="white" d="M179.7,132c0.6,0,1.2-0.2,1.7-0.6c0.5-0.3,0.7-0.9,0.7-1.5h1.7l0,0.1c0,1-0.4,1.9-1.2,2.4
	c-0.8,0.7-1.9,1.1-2.9,1.1c-1.3,0.1-2.7-0.5-3.5-1.5c-0.8-1.1-1.3-2.4-1.2-3.8v-0.4c0-1.4,0.4-2.7,1.2-3.8c0.9-1,2.2-1.6,3.5-1.5
	c0.8,0,1.6,0.1,2.3,0.4c0.6,0.3,1.2,0.6,1.7,1.2l0.1,2.3h-1.5l-0.4-1.7c-0.3-0.2-0.6-0.4-0.9-0.5c-0.4-0.1-0.8-0.2-1.2-0.2
	c-0.9-0.1-1.7,0.3-2.2,1.1c-0.5,0.8-0.7,1.7-0.6,2.7v0.4c0,0.9,0.2,1.9,0.6,2.7C178,131.6,178.9,132,179.7,132z"/>
<path class="white" d="M190.6,133.5c-1.3,0.1-2.6-0.5-3.5-1.5c-0.9-1.1-1.4-2.4-1.3-3.8v-0.4c0-1.4,0.4-2.7,1.3-3.8
	c0.8-0.9,1.9-1.5,3.2-1.5c1.2-0.1,2.4,0.4,3.2,1.3c0.8,1,1.2,2.2,1.1,3.4v1.2h-6.9l0,0c0,0.9,0.3,1.8,0.8,2.5c0.5,0.7,1.3,1,2.1,1
	c0.6,0,1.2-0.1,1.7-0.3c0.5-0.2,0.9-0.4,1.3-0.8l0.8,1.2c-0.4,0.4-0.9,0.7-1.5,0.9C192.1,133.4,191.4,133.5,190.6,133.5z M190.3,124
	c-0.6,0-1.3,0.3-1.7,0.8c-0.5,0.6-0.8,1.3-0.8,2l0,0h4.9v-0.3c0-0.7-0.2-1.4-0.6-1.9C191.7,124.2,191,124,190.3,124L190.3,124z"/>
<path class="white" d="M47.2,82.2c1.8-0.6,4.7,1.6,5.3,3.2c0.8,2.5,0.5,11.8,0.5,14.9c0,1.8-0.1,3.6-0.1,5.4l0.2,12.7
	c0,4.3,0.6,8.5,1.7,12.6c0.4,1.1,0.9,2.2,1.6,3.2c0.5,0.6,0.9,1.3,1.3,2c-0.2,0.1-0.4,0.2-0.6,0.2c-1.7,0.4-3.5,0-4.8-1.1
	c-1.6-1.1-2.4-3.1-2.9-4.9c-2.4-7.5-2.6-22.9-2.5-31.1c0.1-2.5,1.1-14.3,0.8-15.5c-0.2-0.4-0.4-0.8-0.8-1.1
	C46.9,82.5,47.1,82.3,47.2,82.2z M51.3,94.5L51.3,94.5L51.3,94.5L51.3,94.5z M51.3,95.6l-0.1,0c0,0.2,0.1,0.4,0.1,0.6L51.3,95.6z
	 M51.3,96.2c-0.2,0.2-0.2,0.5-0.1,0.8L51.3,96.2z M52.3,126.3c-0.3-2-0.5-3.9-0.6-5.9c-0.1-3.1-0.4-6.2-0.4-9.4
	c-0.1-4.4,0.2-8.9-0.1-13.3c-0.4,1.5-0.1,13.8-0.1,16.3c0,4.6,0.4,9.1,1.3,13.6C52.4,127.2,52.4,126.8,52.3,126.3L52.3,126.3z"/>
<path class="white" d="M64.3,105.9c1.2-3.1,2.8-8.8,6.3-9.9c3.5-1.1,9,1.9,10.1,5.4c2.1,6.6-0.7,15.8-4,21.6c-0.8,1.7-2.1,3.2-3.8,4.1
	c-0.5,0.3-1.1,0.5-1.7,0.7c-5,1.5-10.2-1.3-11.7-6.3c0-0.1,0-0.1-0.1-0.2l-0.3-1c-1-3.3-0.5-13.4,3.4-14.6L64.3,105.9z M61.7,108
	c-0.5,0.5-0.8,1.2-0.8,1.9L61.7,108z M62.4,109.8c0.3-0.4,0.4-0.9,0.4-1.4L62.4,109.8z M64,108.5c-0.7,1.4-1,2.9-1,4.5
	c0.5-1.4,0.8-2.8,1-4.3L64,108.5z M62.9,114.3l0.1,0.2c0.1,0,0.1-0.1,0.1-0.2L62.9,114.3z M75.7,101.9c0-0.6-0.1-1.1-0.3-1.7
	c-0.1-0.4-0.3-0.7-0.6-1c-2.7,0.8-6.2,9.3-5.3,11.9c0.3,0.8,0.9,1.4,1.7,1.6c-0.1,0.3-0.3,0.6-0.7,0.7c-2.3,0.7-3.9-0.7-5.6-1.9
	c-0.3,3.4-0.4,6.8,0.6,10.1c0.3,1.2,0.8,2.3,1.5,3.3C73.8,120.6,76.6,109.5,75.7,101.9z M66.2,104.7c0.6-1.8,1.4-3.5,2.4-5.1
	l-0.2,0.1c-1.1,1.6-1.9,3.4-2.4,5.3L66.2,104.7z M68.3,102.9c-0.4,0.7-0.7,1.4-0.8,2.1C67.6,104.2,68.1,103.6,68.3,102.9L68.3,102.9
	z M71,100.7L71,100.7l-0.1-0.1c-0.1,0-0.1,0.1-0.1,0.1c-1.3,1.8-3,5.3-2.8,7.6C68.8,105.7,69.8,103.1,71,100.7L71,100.7z
	 M75.9,113.5c-0.4,1-0.8,2-1,3.1C75.4,115.6,75.8,114.6,75.9,113.5L75.9,113.5z M75.7,117.8c0,0.1,0,0.1,0.1,0.1L75.7,117.8z
	 M76.4,116.6c0.3-1.1,0.8-2.1,1-3.2l-1.1,3.1L76.4,116.6L76.4,116.6z M76.3,119.7c-0.1,0.3-0.2,0.6-0.2,1c1-2.4,4.1-8.3,3.2-10.8
	C78.5,113.2,77.5,116.5,76.3,119.7L76.3,119.7z M77.3,113.2c0,0.1,0,0.2,0,0.3L77.3,113.2z M79.2,114.8L79.2,114.8l0.1-0.1
	L79.2,114.8z"/>
<path class="white" d="M99.9,91c-0.9-2.8-5.3-5.1-8.1-4.3c-2.9,0.9-4.2,5.4-5.1,7.9l-1.4-0.1c-3.1,1-3.6,9-2.7,11.6l0.3,0.8
	c1.1,4,5.3,6.3,9.3,5.1c0,0,0.1,0,0.1,0c0.5-0.1,0.9-0.4,1.3-0.5c1.3-0.8,2.4-2,3-3.4C99.3,103.6,101.6,96.2,99.9,91z M84,97.8
	c0.1-0.5,0.3-1.1,0.7-1.5L84,97.8z M85.3,97.8l0.2-1.1C85.6,97.1,85.5,97.4,85.3,97.8z M85.7,101.4l0-0.2l0.2,0
	C85.7,101.3,85.8,101.4,85.7,101.4z M85.7,100.3c0-1.2,0.3-2.4,0.8-3.6l0,0.2C86.4,98,86.1,99.2,85.7,100.3L85.7,100.3z M92,90.5
	c0.1,0,0.1-0.1,0.1-0.1l0.1,0l0,0.1c-1,2-1.8,4-2.5,6.1C89.5,94.8,90.9,91.9,92,90.5L92,90.5z M90.1,89.6l0.2,0
	c-0.8,1.3-1.4,2.7-1.9,4.1l-0.1,0.2C88.6,92.3,89.3,90.9,90.1,89.6z M90,92.2c-0.2,0.5-0.5,1.1-0.7,1.7C89.4,93.3,89.6,92.7,90,92.2
	z M89,109.8c-0.5-0.8-0.9-1.7-1.2-2.6c-0.7-2.6-0.8-5.3-0.5-8c1.4,0.9,2.7,2,4.5,1.5c0.2-0.1,0.4-0.4,0.5-0.6
	c-0.6-0.2-1.1-0.6-1.4-1.2c-0.6-2,2.1-8.9,4.3-9.6c0.2,0.3,0.3,0.6,0.4,0.9c0.1,0.4,0.2,0.9,0.3,1.3C96.6,97.5,94.4,106.3,89,109.8z
	 M95.3,103.1c0.2-0.8,0.5-1.6,0.8-2.4C96,101.5,95.7,102.3,95.3,103.1L95.3,103.1z M96.4,103.1l0.9-2.5c0-0.1,0-0.2,0-0.2l0,0.2
	C97.1,101.5,96.7,102.3,96.4,103.1L96.4,103.1L96.4,103.1z M96.1,106.4c0-0.3,0.1-0.5,0.3-0.7c1-2.6,1.8-5.2,2.3-7.9
	C99.4,99.8,97,104.5,96.1,106.4L96.1,106.4z"/>
<path class="white" d="M132.1,103.5c0.2,0.8-1.2,1.3-1.7,1.4c-1.4,0.5-2.9,0.2-4.2-0.6c-3.5-2.4-6.5-9.6-8.3-13.5l-0.2,0
	c-1.1,3.8-1.8,9.2-6.1,10.5c-5.1,1.6-8.2-3-9.6-7.3c-1.5-4.8-0.7-12.8,5-14.6c2.5-0.8,4.9-0.2,7.4,0.2c-1.2-7.9-2.7-17.8,1.8-25
	c0.7-1.2,1.7-2.1,2.9-2.7c3-1,6,1.8,6.9,4.5c1.7,5.3-0.5,14.6-2.7,19.5l-2.1,4.6c-0.2,0.5-0.2,1,0,1.5c0.6,2,1.2,4.2,1.9,6.2
	c1.1,3.4,3.6,11.5,5.9,14c0.8,0.8,1.9,1.1,3,0.8C132,103.4,132,103.4,132.1,103.5z M103.4,93.5c-0.2-1.5-0.4-2.9-0.6-4.4
	C102.7,90.6,102.9,92.1,103.4,93.5L103.4,93.5z M104.5,89c-0.1,0-0.2,0.2-0.2,0.3c0.1,0.1,0.1,0.1,0.1,0.2
	C104.5,89.4,104.5,89.2,104.5,89L104.5,89z M104.4,89.7c-0.1,0.9,0,1.9,0.2,2.8c0.1,0.2,0.2,0.4,0.3,0.6l-0.3-3.5L104.4,89.7z
	 M105.9,86.2c-0.5,2.4-0.4,5,0.3,7.4c0.2,0.8,0.6,1.5,0.9,2.2c-0.7-3.3-1.6-6.5-0.9-9.9L105.9,86.2z M106.2,85.7L106.2,85.7
	c-0.1,0.1-0.1,0.1,0,0.2L106.2,85.7z M106.8,90.8L106.8,90.8l0-0.2l-0.1,0L106.8,90.8z M115,82.5l-0.2,0c-1.5-0.5-3-2-4.7-1.5
	c-0.3,0.1-0.6,0.3-0.7,0.6c-2.3,3.5-2.2,8.4-1,12.4c0.5,1.5,1.6,4.5,3,5.3c0.4-0.6,0.7-1.2,1-1.8c0.5-1.4,3.7-11.3,3.5-12.1
	L115,82.5z M115,62.1l0-0.2C115,62,114.9,62,115,62.1L115,62.1z M115.9,58.2c-0.1,0.1-0.1,0.3-0.1,0.4L115.9,58.2z M115.9,58.2
	c0.4-0.7,0.7-1.5,0.9-2.3C116.4,56.6,116.1,57.4,115.9,58.2L115.9,58.2z M116.8,55.9l0.4-0.7l-0.2,0L116.8,55.9z M117.4,62.8
	c-0.1,0.4-0.2,0.8-0.2,1.1C117.5,63.6,117.3,63.2,117.4,62.8L117.4,62.8z M117.4,62.8c0-0.2,0.1-0.4,0.1-0.6c0.3-2.5,1-4.9,2-7.2
	c-1.4,1.1-2.1,5.8-2.2,7.6L117.4,62.8z M117.2,66.4L117.2,66.4c0,0.2,0,0.2,0,0.2L117.2,66.4z M121.5,72.9
	c1.5-4.1,3.9-11.9,2.5-16.2c-0.2-1.2-0.9-2.4-1.9-3.1c-1,0.5-1.7,1.4-1.9,2.5c-2.3,6.5-1,13.6-0.2,20.3
	C120.4,76.3,121.3,73.4,121.5,72.9L121.5,72.9z M118.2,76.7L118.2,76.7L118.2,76.7L118.2,76.7z M118.3,77.6L118.3,77.6L118.3,77.6
	L118.3,77.6z M118.6,78.8L118.6,78.8l0.1,0.5l0.1,0L118.6,78.8z M124.8,57.6l-0.2,0l0.3,0.5c-0.5,0.1-0.3,0.4-0.3,0.7
	c0.1,1.9-0.1,3.8-0.5,5.6c-0.7,4.4-2,8.7-3.9,12.7l0.1,0.3c1.9-4.1,5.7-15.6,4.4-19.7L124.8,57.6z M122.1,75.2l-0.5,1.8
	c0.4-0.6,0.7-1.3,0.9-2C122.4,75.1,122.3,75.2,122.1,75.2L122.1,75.2z M122.1,77.9l0,0.2C122.1,78,122.1,78,122.1,77.9L122.1,77.9z
	 M122.8,74.5l-0.3,0l-0.2,0.2l0.1,0.4c0-0.2,0.1-0.3,0.2-0.5C122.7,74.6,122.7,74.5,122.8,74.5L122.8,74.5z M123.2,72.8l-0.2,0
	c0,0.3-0.1,0.6-0.2,0.8l0.1,0.4c0.1-0.3,0.2-1.1,0.6-1.2C123.4,72.8,123.3,72.8,123.2,72.8L123.2,72.8z M122.9,75.1l0.5-0.6
	c-0.1-0.1-0.1-0.2-0.1-0.4L122.9,75.1z M123.4,72.4l0.2-0.2c0.3-1.6,0.8-3.1,1.5-4.6c-0.1,2-1,4.1-1.6,6.1c0.6-0.8,0.5-2,1.1-2.8
	l0.2,0.3l0-0.3c0.2-0.2,0.2-0.5,0.3-0.8l0.1-0.3c0-0.2,0.1-0.4,0.2-0.5l0-0.4l0.1-0.3l-0.2,0l0.3-1l0.2,0.4c-0.1-0.4,0-0.8,0-1.2
	l0.1-0.3l0.2-0.6c-0.1-0.5,0.3-1.2,0.1-1.7l0.1-0.4l0-0.8c0.4-0.7,0.2-4-0.1-4.8c-0.1-0.3-0.4-0.5-0.6-0.7l-0.2,0.1
	c0.1,2.1,0.1,4.2-0.1,6.3c-0.2,2-0.6,4-1.2,6l-0.2,0.6c0,0.4-0.5,1.6-0.4,1.8l-0.2,0.2l0,0.2c0.1,0.2,0.2,0.3,0.3,0.4L123.4,72.4z
	 M123.5,74.7l0-0.3l-0.1,0L123.5,74.7z"/>
<path class="white" d="M63.3,58.4c-1.4-0.4-3-0.2-4.3,0.5c-6.3,3-17.8,10.7-21.2,13c-1.1,0.7-2.1,1.4-3.2,2.2c-2.3,1.5-4.5,3.2-6.6,5
	c-2.1,1.8-4.2,3.6-6.3,5.4c-1.9,1.6-3.7,3.2-5.5,4.7c-1.8,1.5-3.7,3.1-5.6,4.7C9,95.3,7.1,96.3,5,96.9c-0.2,0-0.4,0-0.7,0
	c-0.3,0-0.6,0-0.8,0.1l0.1-1.7L3,95c0,0-0.1-0.1-0.2,0c-0.4-0.8-0.9-1.1-1.5-1.1c-0.7-0.7-1.1-0.5-1.3,0.5c0,0.3,0,0.6-0.1,1
	c0,0.3,0,0.6,0.2,0.9c0.8,2,2.5,3.5,4.5,4c1.3,0.4,2.7,0.4,4.1,0.2c1.4-0.3,2.7-0.8,3.9-1.5c1.2-0.7,2.3-1.5,3.4-2.3
	c1.1-0.8,2.2-1.7,3.2-2.5l2.4-2L20,110.8l-0.6,0.6c-0.8,0.8-1.7,1.6-2.5,2.4c-0.8,0.8-1.6,1.6-2.5,2.5c-0.8,0.9-1.5,1.7-2.2,2.6
	c-0.7,0.9-1.4,1.7-2.1,2.5c-0.2,0.3-0.6,0.5-0.9,0.7c-0.3,0.1-0.6,0.3-0.8,0.6c-0.1,0.2,0,0.5,0.3,0.9c0.6,1.4,2,2.5,3.5,2.7
	c0.9,0.3,2,0,2.7-0.7c0.4-0.3,0.7-0.5,1-0.9c0.3-0.3,0.6-0.6,0.9-0.9l3.1-3.5c0.1,1.3,0.2,2.6,0.3,4c0,1.3,0.2,2.6,0.4,4
	c0.1,1.6,0.4,3.1,0.7,4.6c0.3,1.5,0.8,3,1.3,4.4c0.5,1.4,1.3,2.7,2.4,3.8c1.1,1,2.3,1.8,3.6,2.4c0.4,0.2,0.9,0.2,1.4,0.2
	c0.5-0.1,1-0.1,1.5,0l-0.6-1c-0.4-0.7-0.8-1.4-1.2-2.1c-0.4-0.7-0.8-1.4-1.2-2.1c-0.6-1-1-2.1-1.3-3.3c-0.3-1.2-0.5-2.3-0.8-3.5
	c-0.2-2-0.5-4.1-0.6-6.1c-0.2-2-0.3-4.1-0.2-6.1c0-0.8,0-1.7,0-2.5c0-0.8,0-1.6,0-2.4c1-0.8,8.1-7.9,9-8.6c0.9-0.7,1.8-1.3,2.8-1.8
	l1.9,1c0.2,0.1,0.4,0.2,0.7,0.2c0.2,0,0.4-0.1,0.6-0.4c0.2-0.5,0.2-1,0.1-1.5c-0.3-0.6-0.7-1.2-1.1-1.8c-0.4-0.6-0.9-1-1.5-1.4
	c-0.6-0.4-1.3-0.7-1.9-1c-0.7-0.3-1.6-0.2-2.2,0.2l-7.8,6.9l2.2-19.8c2.8-2.3,5.6-4.6,8.4-6.8c2.8-2.2,20-14,26.8-17.1
	c0,0,0.8,3.5,2.1,0.6C66.7,60.5,63.3,58.4,63.3,58.4z M11.8,121.8c-0.1,0-0.1,0.1-0.2,0.1c-0.1,0.1-0.2,0.1-0.3,0.1L11.8,121.8
	c0.1-0.1,0.1-0.2,0.2-0.2C11.9,121.7,11.9,121.8,11.8,121.8z M16.7,116.3c0.1,0,0.1-0.1,0.1-0.1l0.1,0
	C16.9,116.2,16.8,116.3,16.7,116.3c0,0.1-0.1,0.1-0.2,0.2C16.6,116.4,16.7,116.3,16.7,116.3L16.7,116.3z M15.8,117.1l0.4-0.4
	L15.8,117.1c-0.1,0.1-0.2,0.2-0.2,0.3l-0.1,0L15.8,117.1z M15.7,119.4c0.1-0.1,0.2-0.2,0.3-0.3l0.2-0.1c-0.1,0-0.1,0-0.1,0.1
	c0,0,0,0-0.1,0.1C16,119.2,15.8,119.3,15.7,119.4l-0.2,0.3l0-0.1C15.6,119.6,15.7,119.5,15.7,119.4L15.7,119.4z M14.9,118.1l0.4-0.4
	c0.1,0,0.2-0.1,0.2-0.2c-0.1,0.1-0.1,0.2-0.2,0.2l-0.3,0.4l-0.6,0.7L14.9,118.1z M14.8,120.7c0,0.1-0.1,0.1-0.2,0.2
	C14.6,120.9,14.7,120.8,14.8,120.7C14.7,120.8,14.7,120.7,14.8,120.7L14.8,120.7z M12.1,121.3l0.7-0.8l0.7-0.9
	c0.1,0,0.2-0.1,0.3-0.2l0-0.1l0.3-0.3l-0.3,0.4l-0.1,0l-0.2,0.2l-0.8,1L12.1,121.3z M16.7,120.9c-1,1.2-2,2.3-3.2,3.3
	c1-1.2,2-2.4,3-3.6c1-1.2,2-2.3,3.2-3.3C18.7,118.5,17.7,119.7,16.7,120.9L16.7,120.9z M58.3,63.5c-1.3,0.8-2.8,1.6-4.2,2.2
	c1.4-0.8,2.8-1.8,4.2-2.5c1.3-0.6,2.7-1.2,4.1-1.6C60.9,62.3,59.6,62.8,58.3,63.5z"/>
<path class="white" d="M202.1,88.5c-0.7,1.3-1.6,2.6-2.6,3.7c-1,1.1-2,2.2-3.2,3.1c-2.3,1.8-4.8,3.1-7.6,3.8l-1,0.3l-1,0.2
	c-0.3,0.1-0.7,0.1-1,0.2c-0.3,0.1-0.7,0.1-1,0.1l-1.1,0.1l-1.1,0c-0.4,0-0.7,0-1.1,0l-1.1,0c-2.9-0.2-5.8-0.7-8.6-1.4
	c-5.6-1.4-10.9-3.8-15.8-7c-4.7-3.2-8.9-7.2-12.3-11.8c-0.8-1.2-1.7-2.3-2.4-3.5c-0.8-1.2-1.5-2.5-2.1-3.7c-1.3-2.6-2.4-5.3-3.2-8.1
	c-0.8-2.8-1.2-5.7-1.1-8.6c0-2.9,0.6-5.8,1.8-8.5c0.6-1.3,1.3-2.6,2.2-3.8c0.9-1.2,1.9-2.3,3-3.2c1.1-0.9,2.3-1.7,3.6-2.2
	c1.3-0.5,2.7-0.8,4.1-0.8c1.4,0,2.8,0.3,4.2,0.7c1.4,0.5,2.7,1.1,3.9,1.8c1.3,0.8,2.5,1.7,3.6,2.6c0.6,0.5,1.1,1,1.6,1.5
	c0.3,0.3,0.5,0.5,0.8,0.8c0.2,0.3,0.5,0.6,0.7,0.8l4.6,5.9l-0.9-7.6c-0.1-0.6-0.1-1.1-0.2-1.6c-0.1-0.5-0.2-1.1-0.3-1.6
	c-0.2-1-0.4-2.1-0.7-3.1c-0.5-2.1-1.1-4.1-1.9-6.1c-1.5-4.1-3.4-8-5.9-11.6c-2.6-3.7-5.8-7-9.5-9.6c-3.8-2.7-8.1-4.5-12.6-5.6
	c-4.5-1-9-1.3-13.6-0.9c-4.4,0.3-8.8,1.1-13,2.4c-8.2,2.4-16.1,5.9-23.5,10.2c-1.8,1.1-3.6,2.2-5.4,3.3c-1.8,1.1-3.5,2.3-5.2,3.5
	c-0.9,0.6-1.7,1.2-2.6,1.8c-0.8,0.6-1.7,1.2-2.5,1.9c-1.7,1.2-3.3,2.5-5,3.8c-3.3,2.6-6.4,5.3-9.6,8l-4.5,4l-2.3,1.9l-2.3,1.8
	c-6.2,4.9-12.9,9.1-20,12.6c-1.8,0.8-3.6,1.7-5.5,2.4c-1.8,0.7-3.7,1.4-5.6,2c-1.9,0.6-3.8,1.1-5.8,1.5c-2,0.4-3.9,0.7-5.9,0.9
	l-0.1,1c1,0.2,2.1,0.3,3.1,0.4c1,0.1,2.1,0.1,3.1,0.1c2.1,0,4.2-0.2,6.3-0.4c4.2-0.5,8.3-1.4,12.4-2.7c8.1-2.6,15.8-6.2,22.9-10.9
	l2.6-1.8l2.6-1.8l2.5-1.9l2.4-1.9c3.2-2.4,6.4-4.8,9.7-7.2c6.5-4.7,13.2-9,20-13c0.9-0.5,1.7-1,2.6-1.4c0.9-0.5,1.7-0.9,2.6-1.4
	c1.7-0.9,3.5-1.8,5.2-2.6c3.5-1.7,7-3.1,10.7-4.3c3.6-1.2,7.2-2.1,11-2.5c3.6-0.5,7.3-0.4,10.8,0.2c3.5,0.6,6.9,1.8,10,3.6
	c3.2,1.9,6,4.2,8.4,7c2.5,2.9,4.6,6.1,6.4,9.5c0.8,1.5,1.5,3.1,2.1,4.7c-0.8-0.5-1.6-1-2.5-1.5c-1.5-0.8-3.1-1.4-4.7-1.9
	c-1.7-0.5-3.4-0.7-5.1-0.7c-1.8,0-3.5,0.4-5.1,1c-1.6,0.6-3.1,1.5-4.5,2.6c-1.3,1.1-2.5,2.3-3.6,3.6c-1.1,1.3-2,2.7-2.9,4.2
	c-1.6,3-2.7,6.3-3.3,9.6c-0.5,3.4-0.7,6.8-0.3,10.2c0.9,8.6,4.3,16.7,9.7,23.4c0.5,0.7,1.1,1.3,1.7,2c0.6,0.6,1.2,1.2,1.8,1.8
	c1.2,1.2,2.5,2.3,3.9,3.4c6.8,5.3,14.8,8.7,23.3,10c0.8,0.1,1.7,0.2,2.5,0.3l1.3,0.1l1.3,0.1c1.7,0.1,3.4,0.1,5.1,0
	c1.7-0.1,3.5-0.4,5.1-0.8c1.7-0.4,3.4-1,5-1.7c3.2-1.4,6-3.6,8.2-6.3c1.1-1.3,2-2.7,2.7-4.2c0.4-0.7,0.7-1.5,1-2.3
	c0.3-0.8,0.5-1.6,0.7-2.4L202.1,88.5z"/>
<path class="white" d="M13,55.6l1.4,0c1,0,1.9-0.1,2.9-0.2c1-0.1,1.9-0.2,2.8-0.4c1-0.1,1.9-0.4,2.8-0.6c0.5-0.1,0.9-0.2,1.4-0.4
	l1.4-0.5l1.4-0.5l0.7-0.2l0.7-0.3l2.6-1.2c0.4-0.2,0.9-0.4,1.3-0.6c0.4-0.2,0.8-0.4,1.3-0.7c1.7-0.9,3.3-1.9,4.9-3
	c0.4-0.3,0.8-0.5,1.2-0.8l1.1-0.9l2.2-1.8c1.4-1.3,2.8-2.6,4.1-4c-1.6,1-3.1,2.2-4.6,3.2L40,44.4c-0.8,0.5-1.5,1.1-2.4,1.5
	c-1.6,0.9-3.2,1.9-4.9,2.7c-0.8,0.4-1.6,0.9-2.5,1.2l-2.6,1.1l-0.6,0.3l-0.7,0.2l-1.3,0.5l-1.3,0.5l-1.3,0.4
	c-0.9,0.3-1.8,0.6-2.7,0.7l-1.4,0.3c-0.4,0.1-0.9,0.2-1.4,0.3c-0.9,0.1-1.8,0.3-2.7,0.4L13,54.5l-1.4,0.1c-1.9,0.1-3.7,0.1-5.6-0.2
	c1.8,0.6,3.7,1,5.6,1.1L13,55.6z"/>
<path class="white" d="M159.7,107.7c-1-0.3-1.9-0.7-2.9-1.1c-1.9-0.8-3.8-1.6-5.6-2.6c-3.7-1.9-7.1-4.2-10.2-6.9
	c-1.6-1.4-3-2.8-4.4-4.4c-1.4-1.6-2.6-3.3-3.7-5.1c0.3,1,0.7,2,1.2,2.9c0.5,0.9,1,1.9,1.6,2.7c1.2,1.8,2.6,3.4,4.1,4.9
	c1.5,1.5,3.2,2.9,4.9,4.2c1.7,1.2,3.6,2.4,5.5,3.4c1.9,1,3.9,1.9,5.9,2.6c1,0.4,2,0.7,3,1c0.5,0.2,1,0.3,1.5,0.5l1.5,0.4
	c4.1,1,8.3,1.6,12.6,1.7c-4.1-0.9-8.2-1.9-12.1-3.2C161.6,108.4,160.6,108.1,159.7,107.7z"/>
<path class="white" d="M143.5,1.9c3.1,0.9,6,2.3,8.7,4.2c0.7,0.4,1.3,0.9,1.9,1.4c0.6,0.5,1.2,1,1.8,1.6c0.6,0.5,1.1,1.1,1.7,1.7
	c0.3,0.3,0.5,0.6,0.8,0.9c0.3,0.3,0.5,0.6,0.8,0.9c2,2.6,3.7,5.4,5.2,8.3c-0.9-3.2-2.3-6.3-4.1-9.1c-0.9-1.4-2-2.7-3.2-3.9
	c-0.6-0.6-1.2-1.2-1.9-1.7c-0.7-0.5-1.3-1.1-2-1.5c-2.8-1.9-6-3.3-9.3-4c-1.6-0.4-3.3-0.6-5-0.7c-1.7-0.1-3.4,0-5,0.4
	c1.6,0,3.3,0.2,4.9,0.5C140.4,1.1,142,1.5,143.5,1.9z"/>
</svg>
