<?xml version="1.0" encoding="utf-8"?>
<svg version="1.1" id="Layer_1" xmlns="http://www.w3.org/2000/svg" xmlns:xlink="http://www.w3.org/1999/xlink" x="0px" y="0px"
	 viewBox="0 0 176.5 59" style="enable-background:new 0 0 176.5 59;" xml:space="preserve">
<style type="text/css">
	.st0{fill:#FFFFFF;}
	.st1{clip-path:url(#SVGID_2_);}
	.st2{fill:#686969;}
	.st3{fill:#2A9DD8;}
	.st4{fill:#79C043;}
</style>
<title>TypTap Insurance</title>
<g>
	<g>
		<path class="st0" d="M68.3,24.5c1.1,0.1,2.3,0.2,3.4,0.4c0.1,0.6,0.2,1.3,0.1,2H61.6c0.1-0.6,0.2-1.3,0.5-1.9c1-0.2,2-0.4,3-0.5
			V4.3h-5.8c-0.1,0.8-0.3,2.4-0.5,3c-0.7,0.1-1.4,0.2-2.1,0.2V2.1h20v5.6c-0.7,0-1.5-0.1-2.2-0.2c-0.2-1-0.4-2.1-0.5-3.1h-5.7V24.5z
			"/>
		<path class="st0" d="M87.9,24.9c0.2-0.9,0.7-2.7,1-3.6l1.8-5.7c0.4-1.2,0.8-2.3,1.3-3.5c-0.7-0.1-1.4-0.2-2.1-0.5
			c-0.2-0.6-0.3-1.2-0.3-1.8h6.8c0,0.7-0.1,1.3-0.4,2c-0.5,0.2-1.1,0.3-1.7,0.3l-2,5.9c-1.2,3.6-2.5,7.1-4,10.5
			c-1.4,3.1-4,5.6-7.2,6.8c-0.7-0.7-1.2-1.6-1.3-2.6c2.8-0.7,5.2-2.6,6.4-5.2l-5.8-15.1c-0.6-0.1-1.3-0.3-1.9-0.6
			c-0.2-0.6-0.3-1.2-0.4-1.9h8.1c0,0.6-0.1,1.2-0.3,1.9c-0.9,0.2-1.7,0.4-2.6,0.4c0.5,1,0.9,2,1.3,3l2.2,6.2
			c0.3,1.1,0.6,2.3,0.8,3.5L87.9,24.9z"/>
		<path class="st0" d="M103.8,32.8c1.1,0.1,2.3,0.3,3.4,0.6c0.1,0.5,0.1,1.1,0.1,1.6h-9.3c0.1-0.6,0.2-1.1,0.5-1.6
			c0.7-0.3,1.5-0.5,2.3-0.7V11.9H98c0.1-0.7,0.3-1.3,0.6-1.9c1-0.3,2-0.5,3-0.5c0.6,0,1.1,0.1,1.7,0.2V12h0.4
			c1.1-1.9,3.1-2.9,5.2-2.7c3.1,0,6.7,2.1,6.7,8.6c0,5.7-3.6,9.5-8.7,9.5c-1.1,0-2.2-0.3-3.1-0.9L103.8,32.8z M103.7,24.8
			c1,0.3,2,0.5,3,0.5c3.9,0,5.7-2.8,5.7-6.9c0-4.3-1.9-6.7-4.6-6.7c-1.6,0-3.2,0.8-4.1,2.2L103.7,24.8z"/>
		<path class="st0" d="M128,24.5c1.1,0.1,2.3,0.2,3.4,0.4c0.1,0.6,0.2,1.3,0.1,2h-10.3c0.1-0.6,0.2-1.3,0.5-1.9c1-0.2,2-0.4,3-0.5
			V4.3H119c-0.1,0.8-0.3,2.4-0.5,3c-0.7,0.1-1.4,0.2-2.1,0.2V2.1h20v5.6c-0.7,0-1.5-0.1-2.2-0.2c-0.2-1-0.4-2.1-0.5-3.1H128V24.5z"
			/>
		<path class="st0" d="M147.5,24.7c-1,1.8-3,2.8-5,2.7c-2.6,0-5.1-1.5-5.1-4.8c0-3.7,3.1-5.6,6.6-5.6c1.1,0,2.3,0.2,3.3,0.6v-1.9
			c0-2.6-1.1-4-3.4-4c-1.9,0.1-3.6,0.7-5.2,1.7c-0.1-0.4-0.2-0.8-0.2-1.2c0-0.6,0.1-1.2,0.4-1.8c1.8-0.8,3.8-1.2,5.8-1.2
			c3.9,0,5.6,1.9,5.6,6.8V23c0,0.7,0.1,1.3,0.5,1.9c0.8-0.1,1.7-0.2,2.5-0.4c0,0.1,0,0.3,0,0.4c0,0.6-0.1,1.1-0.4,1.6
			c-1.2,0.6-2.5,1-3.8,1c-0.9-0.6-1.4-1.6-1.5-2.7L147.5,24.7z M147.5,19.3c-0.8-0.2-1.7-0.3-2.5-0.3c-2.8,0-4.3,1.2-4.3,3.1
			c0,2,1.5,2.9,3.2,2.9c1.4,0,2.7-0.6,3.6-1.7L147.5,19.3z"/>
		<path class="st0" d="M160.4,32.8c1.1,0.1,2.3,0.3,3.4,0.6c0.1,0.5,0.1,1.1,0.1,1.6h-9.3c0.1-0.6,0.2-1.1,0.5-1.6
			c0.7-0.3,1.5-0.5,2.3-0.7V11.9h-2.6c0.1-0.7,0.3-1.3,0.6-1.9c1-0.3,2-0.5,3-0.5c0.6,0,1.1,0.1,1.7,0.2V12h0.4
			c1.1-1.9,3.1-2.9,5.2-2.7c3.1,0,6.7,2.1,6.7,8.6c0,5.7-3.6,9.5-8.7,9.5c-1.1,0-2.2-0.3-3.1-0.9L160.4,32.8z M160.4,24.8
			c1,0.3,2,0.5,3,0.5c3.9,0,5.7-2.8,5.7-6.9c0-4.3-1.9-6.7-4.6-6.7c-1.6,0-3.2,0.8-4.1,2.2V24.8z"/>
		<path class="st0" d="M56.7,56.4c0.1-0.5,0.2-0.9,0.3-1.4c0.7-0.2,1.3-0.3,2-0.3V40.2c-0.6,0-1.3-0.1-1.9-0.2
			c-0.1-0.5-0.1-1-0.1-1.5h6.5c0.1,0.5,0.1,1-0.1,1.4c-0.7,0.1-1.4,0.2-2.1,0.2v14.5c0.8,0,1.5,0.1,2.3,0.3c0.1,0.3,0.1,0.7,0.1,1
			c0,0.1,0,0.3,0,0.4H56.7z"/>
		<path class="st0" d="M70.1,54.8c0.6,0,1.3,0.2,1.9,0.3C72,55.6,72,56,72,56.4h-6.2c0.1-0.4,0.2-0.8,0.4-1.2
			c0.5-0.2,1.1-0.4,1.6-0.5v-9.1H66c0-0.5,0.2-1,0.5-1.4c0.7-0.2,1.4-0.4,2.1-0.4c0.4,0,0.8,0,1.2,0.2V46H70
			c0.9-1.4,2.5-2.3,4.1-2.2c2,0,3.8,0.6,3.8,4.6c0,2.2-0.1,4.3-0.2,6.4c0.7,0,1.4,0.2,2.1,0.3c0.1,0.3,0.1,0.5,0.1,0.8
			c0,0.1,0,0.3,0,0.4h-6.1c0.1-0.4,0.2-0.8,0.4-1.2c0.5-0.2,1-0.4,1.5-0.5v-6c0-2-0.6-3.2-2.4-3.2c-1.2,0.1-2.4,0.7-3.2,1.6V54.8z"
			/>
		<path class="st0" d="M88.5,45.4c-0.5-0.2-1-0.3-1.5-0.3c-1.3,0-2.1,0.6-2.1,1.6c0,2.9,6,2,6,6.5c0,2.7-2.2,3.7-4.6,3.7
			c-1.4,0-2.7-0.3-3.9-1c-0.1-0.4-0.1-0.8-0.1-1.2c0-0.6,0.1-1.2,0.3-1.8c0.6,0,1.2,0.1,1.8,0.2v1.8c0.6,0.4,1.4,0.6,2.2,0.6
			c1.1,0.1,2-0.6,2.1-1.7c0-0.1,0-0.1,0-0.2c0-3.1-6-1.9-6-6.5c0-1.9,1.7-3.2,4.3-3.2c1.2,0,2.5,0.2,3.6,0.7c0,0.3,0.1,0.5,0.1,0.8
			c0,0.7-0.1,1.4-0.3,2.1c-0.6,0-1.2-0.1-1.7-0.4L88.5,45.4z"/>
		<path class="st0" d="M102.7,45.7h-1.8c0-0.5,0.2-1,0.5-1.4c0.7-0.3,1.5-0.4,2.3-0.4c0.4,0,0.9,0,1.3,0.2V53c0,0.6,0.1,1.2,0.2,1.8
			h1.9c0,0.1,0,0.2,0,0.3c0,0.4-0.1,0.7-0.2,1c-1.1,0.3-2.3,0.5-3.5,0.5c-0.3-0.6-0.5-1.3-0.5-2h-0.1c-0.9,1.4-2.4,2.2-4.1,2.2
			c-2,0-3.8-0.6-3.8-4.6c0-2.2,0-4.4,0.1-6.6h-1.9c0.1-0.5,0.2-0.9,0.5-1.3c0.8-0.3,1.5-0.4,2.3-0.4c0.4,0,0.9,0,1.3,0.2v7.8
			c0,1.9,0.6,3.2,2.4,3.2c1.2-0.1,2.4-0.6,3.2-1.6V45.7z"/>
		<path class="st0" d="M113.4,46.5c0.3-1.6,1.7-2.7,3.3-2.7c0.4,0,0.8,0.1,1.2,0.2c0.2,0.5,0.3,1,0.3,1.5c0,0.2,0,0.5-0.1,0.7
			c-0.5-0.3-1.1-0.4-1.7-0.4c-1.3,0-2.5,0.9-2.9,2.1v6.9c0.9,0.1,1.7,0.2,2.5,0.5c0.1,0.4,0.1,0.8,0.1,1.2h-6.8
			c0.1-0.4,0.2-0.8,0.4-1.2c0.5-0.2,1.1-0.4,1.6-0.5v-9.1h-1.9c0-0.5,0.2-1,0.5-1.4c0.7-0.2,1.4-0.4,2.1-0.4c0.4,0,0.8,0,1.2,0.2
			v2.4L113.4,46.5z"/>
		<path class="st0" d="M127.3,54.9c-0.7,1.3-2.1,2-3.6,1.9c-1.8,0.2-3.5-1.2-3.6-3c0-0.1,0-0.3,0-0.4c0-2.6,2.2-4,4.8-4
			c0.8,0,1.6,0.1,2.4,0.4v-1.4c0-1.9-0.8-2.9-2.4-2.9c-1.3,0.1-2.6,0.5-3.7,1.3c-0.1-0.3-0.1-0.6-0.1-0.9c0-0.4,0.1-0.9,0.3-1.3
			c1.3-0.6,2.7-0.9,4.2-0.9c2.8,0,4,1.4,4,4.9v5c0,0.5,0.1,0.9,0.3,1.3c0.6,0,1.2-0.1,1.8-0.3c0,0.1,0,0.2,0,0.3
			c0,0.4-0.1,0.8-0.3,1.2c-0.9,0.5-1.8,0.7-2.8,0.7c-0.6-0.5-1-1.2-1.1-1.9L127.3,54.9z M127.3,51c-0.6-0.1-1.2-0.2-1.8-0.2
			c-2,0-3.1,0.9-3.1,2.3c0,1.1,0.9,2.1,2.1,2.1c0.1,0,0.2,0,0.3,0c1,0,2-0.5,2.6-1.3L127.3,51z"/>
		<path class="st0" d="M137.6,54.8c0.6,0,1.3,0.2,1.9,0.3c0.1,0.4,0.1,0.8,0.1,1.2h-6.2c0.1-0.4,0.2-0.8,0.4-1.2
			c0.5-0.2,1.1-0.4,1.6-0.5v-9.1h-1.9c0-0.5,0.2-1,0.5-1.4c0.7-0.2,1.4-0.4,2.1-0.4c0.4,0,0.8,0,1.2,0.2V46h0.3
			c0.9-1.4,2.5-2.3,4.1-2.2c2,0,3.8,0.6,3.8,4.6c0,2.2-0.1,4.3-0.2,6.4c0.7,0,1.4,0.2,2.1,0.3c0.1,0.3,0.1,0.5,0.1,0.8
			c0,0.1,0,0.3,0,0.4h-6.1c0.1-0.4,0.2-0.8,0.4-1.2c0.5-0.2,1-0.4,1.5-0.5v-6c0-2-0.6-3.2-2.4-3.2c-1.2,0.1-2.4,0.7-3.2,1.6V54.8z"
			/>
		<path class="st0" d="M157.4,45.7c-0.5-0.2-1-0.4-1.5-0.4c-2.2,0-3.8,1.5-3.8,4.8c0,3.4,1.7,5,4,5c1.1,0,2.1-0.3,3.2-0.6
			c0,0.5-0.1,1-0.4,1.5c-1.2,0.6-2.5,0.9-3.8,0.9c-3.3,0-5.4-2.7-5.4-6.3c0-4,2.5-6.8,6.3-6.8c1.2,0,2.4,0.3,3.4,0.9
			c0,0.3,0.1,0.7,0.1,0.9c0,0.7-0.1,1.5-0.4,2.2c-0.6,0-1.1-0.1-1.6-0.3L157.4,45.7z"/>
		<path class="st0" d="M164.6,50.6c0.1,2.7,1.8,4.4,4.2,4.4c1.2-0.1,2.4-0.3,3.6-0.7c0,0.5-0.1,1-0.3,1.5c-1.2,0.7-2.6,1-4.1,1.1
			c-3.7,0-5.8-2.7-5.8-6.3c0-3.8,2.3-6.8,5.9-6.8c3.1,0,4.4,2.2,4.4,5.5c0,0.5,0,0.9-0.1,1.4L164.6,50.6z M170.2,49.1
			c0.2-1.8-0.3-3.9-2.5-3.9c-1.8,0-3,1.6-3.2,3.9H170.2z"/>
		<path class="st0" d="M172.9,9.7c-1.8,0.1-3.4-1.3-3.5-3.1c0-0.1,0-0.2,0-0.3c-0.1-1.9,1.4-3.4,3.3-3.5c0.1,0,0.2,0,0.3,0
			c1.8-0.1,3.4,1.3,3.5,3.1c0,0.1,0,0.2,0,0.3c0.1,1.9-1.4,3.5-3.3,3.5C173.1,9.7,173,9.7,172.9,9.7z M172.9,3.4
			c-1.5,0-2.7,1.1-2.7,2.6c0,0.1,0,0.1,0,0.2c-0.1,1.5,1,2.8,2.5,2.8c0.1,0,0.1,0,0.2,0c1.5,0,2.7-1.1,2.7-2.6c0-0.1,0-0.1,0-0.2
			c0.1-1.5-1-2.7-2.5-2.8C173.1,3.4,173,3.4,172.9,3.4L172.9,3.4z M171.8,4.8c-0.1,0-0.3,0-0.4,0c0-0.1,0-0.3,0-0.4
			c0.5,0,1.2-0.1,1.6-0.1c0.8,0,1.6,0.3,1.6,1.1c0,0.5-0.3,0.9-0.8,1c0.2,0.4,0.4,0.8,0.7,1.2l0.4,0c0,0.2,0,0.3-0.1,0.5
			C174.5,8,174.2,8,173.9,8c-0.3-0.5-0.6-1.1-0.9-1.6c-0.2,0-0.3,0-0.5,0v1c0.2,0,0.3,0.1,0.5,0.1c0,0.1,0,0.2,0,0.4h-1.8
			c0-0.1,0-0.2,0.1-0.4c0.1-0.1,0.3-0.1,0.4-0.1L171.8,4.8z M173.1,6c0.4,0,0.7-0.2,0.7-0.6c0-0.4-0.4-0.6-1-0.6c-0.1,0-0.2,0-0.3,0
			v1.2C172.7,6,172.9,6,173.1,6L173.1,6z"/>
		<g id="typtap_icon">
			<g>
				<defs>
					<path id="SVGID_1_" d="M2.6,21.3L20.9,3c1.4-1.3,3.5-1.3,4.9,0l18.3,18.3c1.3,1.4,1.3,3.5,0,4.9l-9.1,9.1l9.1,9.1
						c1.2,1.4,1.2,3.5,0,4.9l-6.7,6.7c-1.4,1.3-3.5,1.3-4.9,0l-9.1-9.1l-9.1,9.1c0,0-2,2.3-4.9,0l-6.7-6.7c-1.2-1.4-1.2-3.5,0-4.9
						l9.1-9.1l-9.1-9.1C2.6,26.2,0.1,23.7,2.6,21.3z"/>
				</defs>
				<clipPath id="SVGID_2_">
					<use xlink:href="#SVGID_1_"  style="overflow:visible;"/>
				</clipPath>
				<g class="st1">

						<image style="overflow:visible;opacity:0.33;enable-background:new    ;" width="202" height="205" xlink:href="4619FC8A14EDAB4E.png"  transform="matrix(0.2357 0 0 0.2357 0 10.6618)">
					</image>
					<path class="st2" d="M10.1,56.9l-8.3-8.3c-0.9-0.9-0.9-2.4,0-3.4c0,0,0,0,0,0l33.1-33.1l9.9,9.9c0.9,0.9,0.9,2.4,0,3.4
						L13.4,56.9C12.5,57.8,11,57.8,10.1,56.9C10.1,56.9,10.1,56.9,10.1,56.9z"/>

						<image style="overflow:visible;opacity:0.33;enable-background:new    ;" width="112" height="108" xlink:href="4619FC8A14EDAB52.png"  transform="matrix(0.2347 0 0 0.2347 10.6644 0)">
					</image>
					<path class="st3" d="M23.3,23.7L11.7,12.1l9.9-9.9c0.9-0.9,2.4-0.9,3.4,0c0,0,0,0,0,0l9.9,9.9L23.3,23.7z"/>

						<image style="overflow:visible;opacity:0.33;enable-background:new    ;" width="202" height="205" xlink:href="4619FC8A14EDAB55.png"  transform="matrix(0.2357 0 0 0.2357 0 10.6618)">
					</image>
					<path class="st4" d="M33.3,56.9L1.8,25.4c-0.9-0.9-0.9-2.4,0-3.4c0,0,0,0,0,0l9.9-9.9l33.1,33.1c0.9,0.9,0.9,2.4,0,3.4
						l-8.3,8.3C35.7,57.8,34.2,57.8,33.3,56.9z"/>
				</g>
			</g>
		</g>
	</g>
</g>
</svg>
