<?xml version="1.0" encoding="utf-8"?>
<svg version="1.1" id="Layer_1" xmlns="http://www.w3.org/2000/svg" xmlns:xlink="http://www.w3.org/1999/xlink" x="0px" y="0px"
	 viewBox="0 0 176.5 59" style="enable-background:new 0 0 176.5 59;" xml:space="preserve">
<style type="text/css">
	.st0{fill:#FFFFFF;}
	.st1{clip-path:url(#SVGID_2_);}
	.st2{fill:#686868;}
	.st3{fill:#289CD7;}
	.st4{fill:url(#SVGID_3_);}
	.st5{fill:#79BF43;}
	.st6{fill:url(#SVGID_4_);}
</style>
<title>TypTap Insurance</title>
<g>
	<g>
		<path class="st0" d="M59.2,38.2c1.2,0.1,2.6,0.2,3.6,0.4c0.2,0.5,0.2,1.6,0.1,2.1H52c0-0.6,0.3-1.5,0.5-2c0.8-0.2,2.3-0.4,3.2-0.5
			V16.6h-6.1c-0.1,0.9-0.3,2.5-0.5,3.2c-0.6,0.2-1.6,0.2-2.3,0.2v-5.8h21.3v5.9c-0.8,0-1.7-0.1-2.3-0.3c-0.2-0.8-0.4-2.4-0.5-3.3
			h-6.1V38.2z"/>
		<path class="st0" d="M80,38.5c0.2-0.9,0.7-2.9,1-3.8l1.9-6c0.3-1.1,0.9-2.8,1.4-3.7c-0.7-0.1-1.7-0.3-2.3-0.5
			c-0.2-0.6-0.3-1.3-0.3-1.9H89c0,0.6-0.2,1.6-0.4,2.1c-0.5,0.2-1.3,0.3-1.8,0.3l-2.2,6.3c-1.1,3.1-2.9,8.4-4.3,11.2
			c-1.8,3.6-4.2,6-7.7,7.2c-0.6-0.5-1.3-1.7-1.4-2.8c3.4-0.9,5.8-3.1,6.9-5.6L72,25.2c-0.7-0.2-1.4-0.4-2-0.6
			c-0.2-0.5-0.3-1.4-0.4-2h8.6c0,0.6-0.2,1.4-0.3,2C77.3,24.8,76,25,75.2,25c0.5,0.8,1,2.1,1.4,3.2l2.4,6.6c0.3,0.8,0.7,2.7,0.8,3.7
			H80z"/>
		<path class="st0" d="M96.9,46.9c1,0.1,2.8,0.4,3.6,0.7c0.1,0.5,0.2,1.2,0.1,1.7h-9.9c0.1-0.6,0.3-1.2,0.5-1.7
			c0.6-0.3,1.7-0.6,2.4-0.7V24.7h-2.8c0-0.6,0.3-1.4,0.7-2c0.8-0.3,2-0.5,3.1-0.5c0.6,0,1.3,0.1,1.8,0.2v2.5h0.4
			c0.9-1.5,2.4-2.9,5.6-2.9c3.3,0,7.2,2.3,7.2,9.1c0,6.1-3.8,10.2-9.3,10.2c-1.1,0-2.5-0.3-3.3-0.9V46.9z M96.9,38.5
			c0.9,0.3,2,0.5,3.1,0.5c4.2,0,6.1-3,6.1-7.4c0-4.5-2-7.1-4.9-7.1c-2.2,0-3.5,1.1-4.3,2.3V38.5z"/>
		<path class="st0" d="M122.7,38.2c1.2,0.1,2.6,0.2,3.6,0.4c0.2,0.5,0.2,1.6,0.1,2.1h-10.9c0-0.6,0.3-1.5,0.5-2
			c0.8-0.2,2.3-0.4,3.2-0.5V16.6h-6.1c-0.1,0.9-0.3,2.5-0.5,3.2c-0.6,0.2-1.6,0.2-2.3,0.2v-5.8h21.3v5.9c-0.8,0-1.7-0.1-2.3-0.3
			c-0.2-0.8-0.4-2.4-0.5-3.3h-6.1V38.2z"/>
		<path class="st0" d="M143.4,38.4c-1,1.9-3,2.9-5.3,2.9c-2.8,0-5.4-1.6-5.4-5.1c0-3.9,3.3-5.9,7-5.9c1.2,0,2.6,0.2,3.5,0.6v-2
			c0-2.8-1.2-4.2-3.6-4.2c-1.6,0-4.2,0.9-5.5,1.9c-0.2-0.3-0.2-0.8-0.2-1.3c0-0.7,0.2-1.5,0.4-1.9c1.3-0.7,4.2-1.3,6.2-1.3
			c4.1,0,5.9,2,5.9,7.2v7.3c0,0.8,0.2,1.7,0.5,2c0.6,0,1.9-0.2,2.6-0.5c0,0.2,0,0.3,0,0.4c0,0.6-0.2,1.2-0.4,1.7
			c-0.8,0.5-2.8,1.1-4.1,1.1c-0.8-0.5-1.5-1.7-1.6-2.9H143.4z M143.3,32.6c-0.7-0.2-1.9-0.3-2.7-0.3c-3,0-4.6,1.3-4.6,3.3
			c0,2.1,1.6,3,3.4,3c1.5,0,3.1-0.7,3.8-1.9V32.6z"/>
		<path class="st0" d="M157.1,46.9c1,0.1,2.8,0.4,3.6,0.7c0.1,0.5,0.2,1.2,0.1,1.7h-9.9c0.1-0.6,0.3-1.2,0.5-1.7
			c0.6-0.3,1.7-0.6,2.4-0.7V24.7H151c0-0.6,0.3-1.4,0.7-2c0.8-0.3,2-0.5,3.1-0.5c0.6,0,1.3,0.1,1.8,0.2v2.5h0.4
			c0.9-1.5,2.4-2.9,5.6-2.9c3.3,0,7.2,2.3,7.2,9.1c0,6.1-3.8,10.2-9.3,10.2c-1.1,0-2.5-0.3-3.3-0.9V46.9z M157.1,38.5
			c0.9,0.3,2,0.5,3.1,0.5c4.2,0,6.1-3,6.1-7.4c0-4.5-2-7.1-4.9-7.1c-2.2,0-3.5,1.1-4.3,2.3V38.5z"/>
		<path class="st0" d="M170.4,22.4c-2.2,0-3.7-1.5-3.7-3.7c0-2.2,1.5-3.7,3.8-3.7c2.2,0,3.7,1.5,3.7,3.7
			C174.2,20.8,172.6,22.4,170.4,22.4z M170.4,15.7c-1.7,0-2.9,1.3-2.9,2.9c0,1.7,1.2,3,2.9,3c1.7,0,2.9-1.3,2.9-3
			C173.3,17,172.2,15.7,170.4,15.7z M169.2,17.2c-0.1,0-0.4,0-0.5,0c0-0.1-0.1-0.4,0-0.5c0.5-0.1,1.3-0.1,1.7-0.1
			c0.9,0,1.7,0.3,1.7,1.1c0,0.6-0.4,1-0.8,1c0.2,0.4,0.5,0.8,0.7,1.2l0.5-0.1c0,0.2-0.1,0.4-0.1,0.5c-0.2,0.1-0.6,0.1-0.9,0.1
			c-0.3-0.6-0.7-1.2-0.9-1.7c-0.2,0-0.4,0-0.5,0V20c0.2,0,0.4,0.1,0.5,0.1c0,0.1,0,0.3,0,0.4h-1.9c0-0.1,0.1-0.3,0.1-0.4
			c0.1-0.1,0.4-0.1,0.5-0.1V17.2z M170.6,18.4c0.4,0,0.8-0.2,0.8-0.6c0-0.5-0.4-0.6-1-0.6c-0.1,0-0.2,0-0.3,0v1.2
			C170.2,18.4,170.4,18.4,170.6,18.4z"/>
	</g>
	<g id="typtap_x5F_icon_1_">
		<defs>
			<path id="SVGID_1_" d="M3.2,22.8L18.8,7.2c0,0,1.9-1.9,4.2,0l15.6,15.6c0,0,1.9,1.9,0,4.2l-7.8,7.8l7.8,7.8c0,0,1.8,2,0,4.2
				l-5.7,5.7c0,0-1.9,1.9-4.2,0l-7.8-7.8l-7.8,7.8c0,0-1.7,2-4.2,0l-5.7-5.7c0,0-1.8-2,0-4.2l7.8-7.8L3.2,27
				C3.2,27,1.1,24.9,3.2,22.8z"/>
		</defs>
		<clipPath id="SVGID_2_">
			<use xlink:href="#SVGID_1_"  style="overflow:visible;"/>
		</clipPath>
		<g class="st1">
			
				<image style="overflow:visible;opacity:0.33;" width="201" height="204" xlink:href="8A28E1721EBF15C4.png"  transform="matrix(0.2018 0 0 0.2018 1.0266 13.7557)">
			</image>
			<g>
				<path class="st2" d="M9.6,53.1l-7-7c-0.8-0.8-0.8-2.1,0-2.9L30.8,15l8.5,8.5c0.8,0.8,0.8,2.1,0,2.9L12.4,53.1
					C11.7,53.9,10.4,53.9,9.6,53.1z"/>
			</g>
		</g>
		<g class="st1">
			<g>
				<path class="st3" d="M20.9,24.9L11,15l8.5-8.5c0.8-0.8,2.1-0.8,2.9,0l8.5,8.5L20.9,24.9z"/>
			</g>
			
				<linearGradient id="SVGID_3_" gradientUnits="userSpaceOnUse" x1="23.7253" y1="29.6199" x2="24.5593" y2="28.7858" gradientTransform="matrix(9.553242e-02 0.591 -0.591 -9.553242e-02 41.1328 8.6986)">
				<stop  offset="0" style="stop-color:#000000;stop-opacity:0.3"/>
				<stop  offset="1" style="stop-color:#000000;stop-opacity:0"/>
			</linearGradient>
			<polygon class="st4" points="21.6,25.4 21,24.8 30.8,15 31.4,15.6 			"/>
		</g>
		<g class="st1">
			<g>
				<path class="st5" d="M29.4,53.1L2.6,26.3c-0.8-0.8-0.8-2.1,0-2.9L11,15l28.2,28.2c0.8,0.8,0.8,2.1,0,2.9l-7,7
					C31.4,53.9,30.2,53.9,29.4,53.1z"/>
			</g>
			
				<linearGradient id="SVGID_4_" gradientUnits="userSpaceOnUse" x1="20.9463" y1="24.8703" x2="21.7803" y2="24.0363" gradientTransform="matrix(0.8433 0.1567 0.1567 0.8433 -0.6151 0.6151)">
				<stop  offset="0" style="stop-color:#000000;stop-opacity:0.3"/>
				<stop  offset="1" style="stop-color:#000000;stop-opacity:0"/>
			</linearGradient>
			<polygon class="st6" points="31.4,34.2 30.8,34.8 11.1,15 11.6,14.4 			"/>
		</g>
	</g>
</g>
</svg>
