<?xml version="1.0" encoding="utf-8"?>
<!-- Generator: Adobe Illustrator 21.0.1, SVG Export Plug-In . SVG Version: 6.00 Build 0)  -->
<svg version="1.1" id="Layer_1" xmlns="http://www.w3.org/2000/svg" xmlns:xlink="http://www.w3.org/1999/xlink" x="0px" y="0px"
	 viewBox="0 0 740 237.4" style="enable-background:new 0 0 740 237.4;" xml:space="preserve">
<style type="text/css">
	.st0{fill:#FFFFFF;}
	.st1{fill:#686868;}
	.st2{fill:#199EE0;}
	.st3{fill:#79BF2E;}
	.st4{fill:url(#SVGID_1_);}
	.st5{fill:url(#SVGID_2_);}
</style>
<title>TypTap</title>
<g>
	<g>
		<path class="st0" d="M281,97.7c4.7,0.3,10.5,0.7,14.6,1.5c0.6,1.8,0.8,6.4,0.5,8.2h-43.8c0.2-2.2,1.2-5.8,2-7.9
			c3-0.7,9.1-1.6,12.8-1.9V13.4h-23.2c-0.3,3.4-1.3,9.9-1.9,12.5c-2.2,0.6-6.2,0.9-8.9,0.9V4.4h83v23c-3,0-6.6-0.4-9-1
			c-0.7-3.2-1.6-9.3-1.9-13H281V97.7z"/>
		<path class="st0" d="M362.3,99.4c0.9-3.5,2.8-11.2,4-14.8l7.4-23.5c1.3-4.3,3.7-10.9,5.5-14.3c-2.7-0.3-6.6-1-8.9-1.9
			c-0.7-2.2-1.2-5-1.2-7.5h28.2c0,2.2-0.7,6.1-1.5,8.1c-1.8,0.6-5,1.2-6.9,1.3l-8.4,24.5c-4.1,12.1-11.2,32.6-16.7,43.5
			c-6.9,14-16.5,23.3-29.8,28c-2.2-2.1-5-6.6-5.5-10.9c13.3-3.7,22.4-12,26.7-21.7l-24.1-62.7c-2.7-0.6-5.6-1.5-7.7-2.5
			c-0.7-2.1-1.3-5.3-1.5-7.7h33.4c0,2.4-0.6,5.6-1.2,7.7c-2.7,0.7-7.4,1.5-10.8,1.8c1.8,3.2,3.8,8.3,5.3,12.4l9.3,25.8
			c1.2,3.2,2.7,10.6,3.2,14.3H362.3z"/>
		<path class="st0" d="M428,131.9c4.2,0.3,11.2,1.6,14.6,2.7c0.5,1.8,0.6,4.8,0.3,6.8h-39.5c0.3-2.2,1-4.7,2.1-6.6
			c2.4-1,6.5-2.2,9.5-2.8V45.4h-11c0.1-2.5,1.2-5.6,2.7-7.8c3.3-1.2,8-2.1,12.3-2.1c2.5,0,4.9,0.3,7,0.9v9h1.5
			c3.8-5.9,9.7-11.4,22.6-11.4c13.5,0,29.1,8.9,29.1,35.8c0,23.9-15.5,39.8-37.7,39.8c-4.5,0-10.3-1.3-13.5-3.6V131.9z M428,98.7
			c3.6,1.2,7.8,2.1,12.3,2.1c16.3,0,23.7-11.7,23.7-28.8c0-17.8-8-27.8-19.1-27.8c-8.6,0-13.8,4.4-16.9,9V98.7z"/>
		<path class="st0" d="M529,97.7c4.7,0.3,10.5,0.7,14.6,1.5c0.6,1.8,0.8,6.4,0.5,8.2h-43.8c0.2-2.2,1.2-5.8,2-7.9
			c3-0.7,9.1-1.6,12.8-1.9V13.4h-23.2c-0.3,3.4-1.3,9.9-1.9,12.5c-2.2,0.6-6.2,0.9-8.9,0.9V4.4h83v23c-3,0-6.6-0.4-9-1
			c-0.7-3.2-1.6-9.3-1.9-13H529V97.7z"/>
		<path class="st0" d="M609.5,98.4c-4,7.2-12.2,11.2-21.4,11.2c-11.2,0-21.7-6.2-21.7-19.8c0-15.2,13.3-23.1,28.4-23.1
			c4.9,0,10.4,0.9,14.2,2.5v-8c0-10.9-4.9-16.6-14.5-16.6c-6.6,0-17,3.7-22.3,7.2c-0.6-1.3-0.8-3.1-0.8-5c0-2.8,0.8-5.9,1.7-7.4
			c5-2.8,16.8-5.2,24.9-5.2c16.7,0,24,7.8,24,28.1v28.7c0,3,0.8,6.5,2,7.7c2.3,0,7.6-0.9,10.6-1.8c0.2,0.6,0.2,1.2,0.2,1.6
			c0,2.4-0.6,4.9-1.5,6.7c-3.4,2.1-11.3,4.3-16.5,4.3c-3.1-1.8-6-6.5-6.4-11.2H609.5z M610,75.7c-2.8-0.7-7.4-1.2-10.4-1.2
			c-11.5,0-18,5.2-18,13c0,8.1,6.4,11.8,13.5,11.8c5.8,0,12-2.8,14.9-7.2V75.7z"/>
		<path class="st0" d="M663,131.9c4.2,0.3,11.2,1.6,14.6,2.7c0.5,1.8,0.6,4.8,0.3,6.8h-37.5c0.3-2.2,0.9-4.7,1.9-6.6
			c2.2-1,5.9-2.2,8.6-2.8V45.4h-10c0.1-2.5,1.1-5.6,2.4-7.8c3-1.2,7.3-2.1,11.2-2.1c2.3,0,4.5,0.3,6.4,0.9v9h1.5
			c3.8-5.9,9.7-11.4,22.6-11.4c13.5,0,29.1,8.9,29.1,35.8c0,23.9-15.5,39.8-37.7,39.8c-4.5,0-10.3-1.3-13.5-3.6V131.9z M663,98.7
			c3.6,1.2,7.8,2.1,12.3,2.1c16.3,0,23.7-11.7,23.7-28.8c0-17.8-8-27.8-19.1-27.8c-8.6,0-13.8,4.4-16.9,9V98.7z"/>
	</g>
	<g>
		<path class="st0" d="M232.2,230.4c0.1-1.6,0.8-4.2,1.3-5.7c2-0.5,6.1-1.2,8.5-1.4v-60.1c-2.5-0.1-6.2-0.4-8-0.7
			c-0.3-1.4-0.4-4.7-0.2-6.1h27.4c0.3,1.3,0.2,4.6-0.2,6c-2.5,0.4-6.1,0.7-8.9,0.9v60.2c3.2,0.2,7,0.5,9.7,1.1
			c0.3,1.2,0.4,2.7,0.4,4.2c0,0.6,0,1-0.1,1.7H232.2z"/>
		<path class="st0" d="M288,223c2.6,0.2,5.8,0.7,7.7,1.4c0.3,1.3,0.4,3.6,0.2,5.1h-25.2c0.2-1.6,0.7-3.4,1.5-4.8
			c1.7-0.7,4.7-1.6,6.8-2v-37.2h-7.7c0.1-1.9,0.9-4.2,1.9-5.8c2.2-0.9,5.6-1.5,8.8-1.5c1.8,0,3.5,0.2,5,0.6v7.6h0.8
			c1.9-3.6,7.5-9,16.9-9c8.3,0,15.6,2.6,15.6,19c0,8.9-0.2,17.5-0.6,26.5c2.8,0.2,6.4,0.7,8.5,1.4c0.2,0.8,0.3,2.1,0.3,3.3
			c0,0.6,0,1.2-0.1,1.8h-24.9c0.2-1.6,0.7-3.4,1.5-4.8c1.6-0.7,4.2-1.6,6-2v-24.7c0-8.1-2.5-13.3-9.9-13.3c-5.4,0-10.9,3.8-13.1,6.8
			V223z"/>
		<path class="st0" d="M365,184.9c-1.5-0.6-3.8-1.2-6.1-1.2c-5.4,0-8.5,2.5-8.5,6.3c0,11.6,24.2,8.1,24.2,26.1
			c0,10.8-9,14.9-18.7,14.9c-5.9,0-11.4-1.3-15.9-3.9c-0.3-1.1-0.5-3.3-0.5-5c0-2.6,0.5-5.5,1-7.4c2.3,0,5.3,0.3,7.5,0.9v7.2
			c2.4,1.6,5.6,2.4,8.7,2.4c5.2,0,8.7-3.1,8.7-7.8c0-12.3-24.4-7.9-24.4-26.2c0-7.6,6.9-13,17.2-13c4.8,0,10,0.8,14.6,2.7
			c0.2,0.9,0.2,2.1,0.2,3.2c0,2.9-0.5,6.1-1.1,8.4c-2.3,0-5.2-0.5-6.9-1.6V184.9z"/>
		<path class="st0" d="M424,185.4h-7.9c0.1-1.8,0.9-4,1.9-5.6c2.5-1,6.1-1.5,9.6-1.5c1.9,0,3.8,0.2,5.4,0.6v36.9
			c0,0,0.1,5.1,0.8,7.6h8.1c0.1,0.4,0.1,1.1,0.1,1.4c0,1.4-0.4,3.2-0.9,4.3c-3.8,1.3-11.4,2.1-14.6,2.1c-1.2-2.1-2.1-8.8-2.1-8.8
			h-0.2c-1.9,3.6-7.5,8.8-17,8.8c-8.3,0-15.7-2.6-15.7-18.9c0-8.8,0.1-18.1,0.5-26.9h-8.1c0.2-1.7,0.9-4,1.9-5.5
			c2.5-0.9,6.2-1.6,9.7-1.6c1.9,0,3.9,0.2,5.5,0.6v31.8c0,8,2.6,13.1,9.8,13.1c5.3,0,10.9-3.5,13.2-6.4V185.4z"/>
		<path class="st0" d="M468.4,189.4c1.5-7,6.9-11.9,13.8-11.9c1.3,0,3.5,0.3,4.8,0.9c0.7,1.3,1.4,3.7,1.4,6.4c0,1.1-0.1,2-0.3,2.9
			c-1.9-1.2-4.7-1.8-7.2-1.8c-4.9,0-12.9,8.7-12.9,8.7v29c2.9,0.2,7.9,1.1,10.2,1.9c0.3,1.3,0.4,3.4,0.2,4.9h-27.5
			c0.2-1.6,0.7-3.4,1.4-4.8c1.7-0.8,4.6-1.6,6.6-2v-38.1h-7.4c0,0,0.9-4.2,1.9-5.8c2.3-0.9,5.8-1.5,8.8-1.5c1.8,0,3.5,0.2,4.7,0.6
			v10.6H468.4z"/>
		<path class="st0" d="M526.3,223.4c-2.8,5.2-8.5,8.1-14.8,8.1c-7.7,0-15-4.5-15-14.3c0-11,9.2-16.6,19.7-16.6
			c3.4,0,7.2,0.6,9.8,1.8v-5.8c0-7.9-3.4-11.9-10.1-11.9c-4.6,0-11.8,2.7-15.5,5.2c-0.4-1-0.5-2.2-0.5-3.6c0-2,0.5-4.3,1.2-5.3
			c3.5-2,11.6-3.7,17.3-3.7c11.5,0,16.6,5.6,16.6,20.2v20.7c0,2.1,0.5,4.7,1.4,5.5c1.6,0,5.3-0.6,7.3-1.3c0.1,0.4,0.1,0.9,0.1,1.2
			c0,1.7-0.4,3.5-1.1,4.8c-2.3,1.5-7.8,3.1-11.4,3.1c-2.1-1.3-4.1-4.7-4.4-8.1H526.3z M526,207.3c-2-0.5-5.3-0.9-7.5-0.9
			c-8.3,0-13,3.7-13,9.4c0,5.9,4.6,8.5,9.7,8.5c4.2,0,8.6-2,10.8-5.2V207.3z"/>
		<path class="st0" d="M569,223c2.6,0.2,5.8,0.7,7.7,1.4c0.3,1.3,0.4,3.6,0.2,5.1h-26.2c0.2-1.6,0.7-3.4,1.5-4.8
			c1.7-0.7,4.7-1.6,6.8-2v-37.2h-7.3c0.1-1.9,0.9-4.2,1.9-5.8c2.2-0.9,5.6-1.5,8.8-1.5c1.8,0,3.5,0.2,4.6,0.6v7.6h1.8
			c1.9-3.6,7.5-9,16.9-9c8.3,0,15.6,2.6,15.6,19c0,8.9-0.2,17.5-0.6,26.5c2.8,0.2,6.4,0.7,8.5,1.4c0.2,0.8,0.3,2.1,0.3,3.3
			c0,0.6,0,1.2-0.1,1.8h-24.9c0.2-1.6,0.7-3.4,1.5-4.8c1.6-0.7,4.2-1.6,6-2v-24.7c0-8.1-2.5-13.3-9.9-13.3c-5.4,0-10.9,3.8-13.1,6.8
			V223z"/>
		<path class="st0" d="M651,185.3c-2.1-1.1-4.2-1.6-6.2-1.6c-9.2,0-15.8,6.1-15.8,20c0,14.1,7,20.7,16.6,20.7
			c3.7,0,9.7-1.3,13.1-2.6c0.1,1.6-0.5,4.5-1.5,6.1c-3.6,1.9-10.1,3.8-15.8,3.8c-13.7,0-22.6-11.1-22.6-26
			c0-16.5,10.5-28.2,26.1-28.2c5.5,0,10.3,1.5,14,3.8c0.1,1.1,0.2,2.8,0.2,3.8c0,3.1-0.4,6.3-1.5,9.1c-1.9,0-5-0.5-6.7-1.4V185.3z"
			/>
		<path class="st0" d="M680.6,205.4c0.2,11.4,7.3,18.4,17.4,18.4c4.6,0,11-1.5,14.9-3c0.2,1.6-0.4,4.5-1.4,6.1
			c-3.8,2.1-10.2,4.4-16.8,4.4c-15.2,0-24-11.4-24-26.1c0-15.7,9.7-28.1,24.6-28.1c12.8,0,18.2,9.3,18.2,22.7c0,1.8-0.1,3.7-0.3,5.6
			H680.6z M704.1,199.4c0.7-7.3-1.4-16.3-10.3-16.3c-7.6,0-12.5,6.6-13.1,16.3H704.1z"/>
	</g>
	<g>
		<path class="st0" d="M679,24.3c1,0.1,2.2,0.2,3.1,0.3c0.1,0.4,0.2,1.4,0.1,1.7h-9.4c0-0.5,0.3-1.2,0.4-1.7c0.7-0.2,2-0.3,2.7-0.4
			V6.4h-5.7c-0.1,0.8-0.3,2.2-0.4,2.8c-0.5,0.1-1.3,0.2-1.9,0.2v-5h18v5.1c-0.6,0-1.4-0.1-2-0.2c-0.2-0.7-0.4-2.1-0.4-2.9H679V24.3z
			"/>
		<path class="st0" d="M695.3,12.8c-0.8-2.2-1.5-4.4-1.7-6.4H693v17.8c1,0.1,1.9,0.2,2.5,0.3c0.1,0.4,0.1,1.3,0.1,1.9h-7.1
			c0-0.7,0.2-1.4,0.4-1.9c0.5-0.2,2.2-0.4,2.2-0.4V6.4c-0.7,0-1.8-0.1-2.3-0.2c-0.1-0.4-0.1-1.4-0.1-1.8h6.6l4.7,13.5
			c0.6,1.7,1.2,3.7,1.5,5.5h0.2c0.4-1.8,1-3.7,1.6-5.5l4.9-13.5h6.7c0.1,0.4,0.1,1.4-0.1,1.8c-0.8,0.1-1.9,0.2-2.8,0.3v17.9
			c1,0.1,2.2,0.2,3.1,0.3c0.1,0.3,0.1,0.8,0.1,1.2c0,0.2,0,0.3,0,0.5h-9.1c0-0.5,0.2-1.2,0.4-1.7c0.6-0.2,1.8-0.3,2.5-0.4V6.4h-0.2
			c-0.2,1.8-1,4.2-1.8,6.4l-5,13.6h-1.8L695.3,12.8z"/>
	</g>
	<path class="st1" d="M39.1,231.8L4.9,197.6c-3.8-3.8-3.8-10.1,0-13.9L142.4,46.1l41.2,41.2c3.8,3.8,3.8,10.1,0,13.9L53.1,231.8
		C49.2,235.7,43,235.7,39.1,231.8z"/>
	<path class="st2" d="M94.3,94.3L46.1,46.1L87.3,4.9c3.8-3.8,10.1-3.8,13.9,0l41.2,41.2L94.3,94.3z"/>
	<path class="st3" d="M135.5,231.8L4.9,101.2C1,97.4,1,91.2,4.9,87.3l41.2-41.2l137.6,137.6c3.8,3.8,3.8,10.1,0,13.9l-34.3,34.3
		C145.6,235.7,139.3,235.7,135.5,231.8z"/>
	
		<linearGradient id="SVGID_1_" gradientUnits="userSpaceOnUse" x1="142.9381" y1="133.3033" x2="142.9381" y2="128.6137" gradientTransform="matrix(0.5831 0.5831 -0.6661 0.6661 99.7365 -77.8183)">
		<stop  offset="0" style="stop-color:#000000;stop-opacity:0.3"/>
		<stop  offset="0.95" style="stop-color:#000000;stop-opacity:0"/>
	</linearGradient>
	<polygon class="st4" points="142.5,142.5 46.1,46.1 49.2,43 145.6,139.4 	"/>
	
		<linearGradient id="SVGID_2_" gradientUnits="userSpaceOnUse" x1="201.5384" y1="99.8277" x2="201.5384" y2="95.1381" gradientTransform="matrix(-0.2916 0.2916 -0.6661 -0.6661 243.6448 77.9002)">
		<stop  offset="0" style="stop-color:#000000;stop-opacity:0.3"/>
		<stop  offset="0.95" style="stop-color:#000000;stop-opacity:0"/>
	</linearGradient>
	<polygon class="st5" points="94.3,94.3 142.5,46.1 145.6,49.2 97.4,97.4 	"/>
</g>
</svg>
