<?xml version="1.0" encoding="utf-8"?>
<!-- Generator: Adobe Illustrator 21.0.2, SVG Export Plug-In . SVG Version: 6.00 Build 0)  -->
<svg version="1.1" id="Layer_1" xmlns="http://www.w3.org/2000/svg" xmlns:xlink="http://www.w3.org/1999/xlink" x="0px" y="0px"
	 viewBox="0 0 200 200" style="enable-background:new 0 0 200 200;" xml:space="preserve">
<style type="text/css">
	.st0{opacity:0.2;fill:#199EE0;}
	.st1{opacity:0.2;fill:#686868;}
	.st2{opacity:0.2;fill:#79BF2E;}
	.st3{opacity:0.2;fill:url(#SVGID_1_);}
	.st4{opacity:0.2;fill:url(#SVGID_2_);}
</style>
<path class="st0" d="M100,80.4L60.8,41.3L94.3,7.8c3.1-3.1,8.2-3.1,11.3,0l33.5,33.5L100,80.4z"/>
<path class="st1" d="M27.3,153c-3.1,3.1-3.1,8.2,0,11.3l27.9,27.9c3.1,3.2,8.2,3.2,11.3,0l33.5-33.5l-39.2-39.2L27.3,153z"/>
<path class="st1" d="M172.7,86.1c3.1-3.1,3.1-8.2,0-11.3l-33.5-33.5L100,80.5l39.2,39.2L172.7,86.1z"/>
<path class="st2" d="M172.6,153.1l-33.5-33.5L100,80.5L60.8,41.3L27.3,74.8c-3.1,3.1-3.1,8.2,0,11.3l33.5,33.5l39.2,39.2l33.5,33.5
	c3.1,3.2,8.2,3.2,11.2,0.1l27.9-27.9C175.7,161.3,175.7,156.2,172.6,153.1z"/>
<linearGradient id="SVGID_1_" gradientUnits="userSpaceOnUse" x1="373.3919" y1="567.5116" x2="373.3919" y2="571.3233" gradientTransform="matrix(0.5831 0.5831 0.6661 -0.6661 -495.7318 240.7321)">
	<stop  offset="0" style="stop-color:#000000;stop-opacity:0.3"/>
	<stop  offset="0.95" style="stop-color:#000000;stop-opacity:0"/>
</linearGradient>
<polygon class="st3" points="139.2,119.6 60.8,41.3 63.4,38.7 141.7,117.1 "/>
<linearGradient id="SVGID_2_" gradientUnits="userSpaceOnUse" x1="-614.8388" y1="1126.6573" x2="-614.8388" y2="1130.4691" gradientTransform="matrix(-0.2916 0.2916 0.6661 0.6661 -810.1739 -510.2999)">
	<stop  offset="0" style="stop-color:#000000;stop-opacity:0.3"/>
	<stop  offset="0.95" style="stop-color:#000000;stop-opacity:0"/>
</linearGradient>
<polygon class="st4" points="100,80.4 139.2,41.3 141.7,43.8 102.5,83 "/>
</svg>
