<svg id="Layer_1" data-name="Layer 1" xmlns="http://www.w3.org/2000/svg" viewBox="0 0 200.03174 153.68423"><defs><style>.cls-1{fill:#79bf43;}.cls-2{fill:#1e404e;}</style></defs><title>TypTap-Home-Insurance-logo</title><path class="cls-1" d="M45.66577,160.52425c-3.23584-.75489-6.28369-5.49756-7.44629-8.41309a35.97992,35.97992,0,0,1-1.83349-7.71728c-.45752-2.93018-.9917-5.83008-1.34131-8.71436-.792-6.44287-.57031-13.02295-1.02442-19.51172-.82959,1.042-5.03711,6.1001-5.88086,6.43652-.92089.36719-2.46923-.61572-3.20507-1.12255l.03076-.36817-.981-.231a5.16836,5.16836,0,0,1,.584-1.21142c.90576-1.07276,1.873-1.99219,2.74853-3.14209a83.52541,83.52541,0,0,0,6.63574-9.67188,2.24322,2.24322,0,0,1,1.05908-1.13427c1.88672.49267,4.33985,1.7373,5.1045,3.65527.30615.76758.11914,3.86621.17968,4.90869l.31446,7.70069c.11963,3.42089.31543,6.811.61914,10.24755.78222-.04541,5.60107-2.23437,6.752-2.69336a42.30186,42.30186,0,0,1,6.13721-2.0039,4.6097,4.6097,0,0,0-.06006-1.04346c-.65332-6.31982-2.46484-21.33887-.87891-26.95117a1.11893,1.11893,0,0,1,.6294-.87354.74525.74525,0,0,1,.41406-.07641l.79736.66015.353-.22973a3.41807,3.41807,0,0,1,.87354.62988l-.12305.13794.65967.093c.36767.47534,1.21093,1.02881,1.42529,1.56592.76465,1.918.69922,6.65771.8042,8.92773.25635,4.87842.80371,9.81787,1.42773,14.72754,2.085,17.48779,4.31006,32.43017,10.82862,48.77246a4.02494,4.02494,0,0,1,.42773,1.96387,6.36564,6.36564,0,0,1-3.57324-.709c-2.7749-1.82812-4.61231-5.09668-5.80566-8.08935-4.00928-10.0503-5.3794-21.06543-7.19434-31.63623-.25977-1.31885-.335-2.623-.48731-3.89649-4.34277,1.82178-8.45556,3.99561-12.79834,5.8169.18262,1.35009.21192,2.76074.47168,4.08056A82.74009,82.74009,0,0,0,46.94165,157.703a14.11757,14.11757,0,0,1,.96338,3.08447l-2.00879-.355.03027.07666-.23.0918Zm-17.44824-39.73c.70605-.45948,5.91211-6.80469,5.88184-7.32569C32.54907,114.7093,29.63062,118.98616,28.21753,120.79427Zm.66406-4.35547c-.123.13818-.39941.3374-.30762.56738l.03028.07666Zm1.53565-1.94629a5.26571,5.26571,0,0,0-.82959,1.042,2.15728,2.15728,0,0,1,.52246-.47461Zm3.76318-5.50293c-.43018.70459-2.76514,4.21533-3.21045,4.66015l-.18457.42872a42.21034,42.21034,0,0,0,3.50244-5.043Zm-1.63037,4.38525-.30713.56738.15332-.06152a.35442.35442,0,0,0,.18457-.42871Zm1.59717-1.79345-.13819-.12256-.06152.291Z" transform="translate(-23.98413 -22.15788)"/><path class="cls-1" d="M71.80444,128.39827c.89258-3.11328,2.03321-8.72607,5.40918-10.07275,3.29883-1.31592,8.834,1.18994,10.15039,4.48925,2.47852,6.21485.44532,15.38526-2.30615,21.19629a8.81141,8.81141,0,0,1-3.36328,4.27588,12.32671,12.32671,0,0,1-1.55029.79639,9.11926,9.11926,0,0,1-11.85157-5.41113l-.36718-.9209c-1.25489-3.14551-1.42969-12.94727,2.25293-14.41651Zm-2.30273,2.25244a3.28448,3.28448,0,0,0-.67676,1.87109Zm.75,1.65772a2.17072,2.17072,0,0,0,.26172-1.34961Zm.82422,4.29589.06152.15284c.07617-.03077.0459-.10743.0918-.21436Zm.665-5.69091a10.16749,10.16749,0,0,0-.6333,4.4331,21.50032,21.50032,0,0,0,.61767-4.24853Zm10.80566-7.24463a11.44048,11.44048,0,0,0-.38232-1.62647,2.53765,2.53765,0,0,0-.62744-.90527c-2.53223,1.00976-5.28614,9.48926-4.30665,11.94482a2.51962,2.51962,0,0,0,1.8086,1.41309,1.093,1.093,0,0,1-.5835.76611c-2.14795.85694-3.81933-.4331-5.55127-1.43213-.01855,3.29834.07032,6.64209,1.29444,9.71143a12.46027,12.46027,0,0,0,1.66894,3.06934C82.08423,141.90657,84.04272,130.98714,82.54663,123.66878Zm-8.96142,3.39648a27.59382,27.59382,0,0,1,1.95312-5.13672l-.15332.061a20.44247,20.44247,0,0,0-1.96875,5.32129Zm1.9038-1.91553a6.4775,6.4775,0,0,0-.66113,2.13184C74.96655,126.514,75.31958,125.84016,75.489,125.14973Zm2.45655-2.31347-.03077-.07666-.07666.03027c-.07666.03076-.04589.10742-.12255.13818-1.15235,1.79346-2.5669,5.38184-2.15479,7.5293A61.08178,61.08178,0,0,1,77.94556,122.83626Zm5.69482,12.04638a16.83348,16.83348,0,0,0-.73926,3.05225A8.437,8.437,0,0,0,83.64038,134.88264Zm.08789,4.23389c.03027.07666.03027.07666.10742.0459Zm.584-1.21094c.20019-1.05859.585-2.10156.708-3.1289l-.81543,3.083.03028.07666Zm.12011,2.97559a2.7336,2.7336,0,0,0-.15429.95068c.83007-2.37695,3.33642-8.35644,2.31054-10.70459A55.928,55.928,0,0,1,84.43237,140.88118Zm.57325-6.36523a.30535.30535,0,0,0,.01464.26074Zm1.916,1.459.07666-.03076-.03076-.07666Z" transform="translate(-23.98413 -22.15788)"/><path class="cls-1" d="M93.94653,137.08577a28.12243,28.12243,0,0,1-1.26806-5.18555c-.90039-4.71-1.40186-9.75732-3.17676-14.207a1.878,1.878,0,0,0-.93457-1.228c-.32227-.13818-.52149-.415-.85889-.36914l-.01513-.26074c-.39893-.10791-1.21192-.13965-1.36426-.52295-.24512-.61377,1.01367-1.47119,1.47363-1.65478a6.27564,6.27564,0,0,1,3.09863-.25879c3.3125.72461,4.87647,1.96875,6.13135,5.11426.82617,2.07177,2.1665,11.6748,2.19727,11.75146l.19922.27686c1.78662-8.00538,3.52832-16.34815,7.58447-23.56934a3.90057,3.90057,0,0,1,2.02685-2.05322,5.76144,5.76144,0,0,1,3.69678.12646,3.24048,3.24048,0,0,1,1.19434,1.65772,11.179,11.179,0,0,1,.61132,2.86914c.24268,2.39306.89844,6.48877.89649,8.71338l.19922.27636c.20019-.61377.50732-1.18066.78418-1.8247,1.98291-4.61524,3.82812-9.35352,6.45508-13.6919l3.18017-5.18164a2.30769,2.30769,0,0,1,1.19776-1.01123,8.49561,8.49561,0,0,1,4.78515.40381,1.62237,1.62237,0,0,1,.84277.9978c.76514,1.91846.751,17.04224,1.03907,20.66236.22705,2.57714.5625,5.20117.82031,7.855a1.40491,1.40491,0,0,0,.1377.56738c.30566.76758,1.04248.38476,1.31787,1.07519.398.99756-.9834,1.54834-1.67383,1.82374-1.6875.67333-4.72461.19482-5.689-1.55469a6.288,6.288,0,0,1-.53613-1.12061c-1.6831-4.21972-2.41309-10.9541-2.62305-15.49463-.15088-2.6084.06641-5.18457.17627-7.80761-4.33154,6.08545-6.228,15.82373-8.82666,22.9082-.769,2.08545-1.6582,1.19434-2.85547,2.206l-2.77587-.49365c-.874-.18506-1.25684-.92187-1.563-1.68848-1.19336-2.99267-1.75635-8.19287-1.81446-11.46044-.02978-.96631.09424-1.99414-.0122-2.92969a3.14536,3.14536,0,0,1-.07617-.85889l-.07667.03076c-.33886,1.37989-1.15283,2.68311-1.59912,4.0166-2.21533,6.93165-2.80517,14.37061-5.09716,21.33252a2.58432,2.58432,0,0,1-1.52051,1.76221C97.56421,139.91145,94.83374,139.31038,93.94653,137.08577Zm3.79053-1.86768q-1.09716-7.4326-2.4248-14.77441l-.26075.01514c.80811,4.9248,1.647,9.92675,2.37842,14.88134Zm5.18457-16.208a.42965.42965,0,0,0-.03076.36767Zm.70215,3.54345a.43.43,0,0,0-.03076.36866Zm6.23535-7.55615c-.0293-1.85644.23389-4.09521-.24023-5.95215a35.82212,35.82212,0,0,0,.10156,6.27442Zm.05811,3.26709-.03077-.07666c-.04638.10742-.123.13818-.09228.21533C109.87085,118.37239,109.84009,118.29524,109.91724,118.26448Zm-.01661,1.07422.07666-.03076-.01464-.26123Zm.10694.49072c-.07666.03076-.07666.03076-.0459.10742.03027.07666.03027.07666.10742.0459Zm.24414,1.50342-.03076-.07715-.07666.03076Zm.10644.936-.03125.36767.07715-.03027.03125-.36817Zm.81055-13.1294-.15381.061.16846.1997Zm-.00146,1.334a18.40886,18.40886,0,0,0,.103,4.49463A20.00269,20.00269,0,0,0,111.16724,110.47346Zm.23974,5.95167a3.58027,3.58027,0,0,0-.09277.65966,2.18915,2.18915,0,0,0,.20019-.61328Zm.09033,1.56494.15332-.061-.30615-.76758Zm.0918.67529-.07715.03027c.03076.07666.03076.07666.13819.12305Zm.106.93555-.0918-.23a.30354.30354,0,0,0,.01514.26074Zm.061.59863-.07666.03076.0918.22949.07666-.03076Zm.01465.70508.03076.07666.0459-.10694Zm.30615.76758-.18457-.01514.0459.78223Zm.0752,1.30371-.15283-.3833a.74339.74339,0,0,0,.07617.41357Zm1.27246.73779.3374-.0459a5.04474,5.04474,0,0,0,.10889-1.28857c-.37939-4.29541-.65186-8.54444-1.10742-12.80909-.07617-.85888-.30567-1.65722-.35059-2.43945l-.26074.01514Zm-1.21191.30518-.04639.10791.07715-.03077Zm1.84961-9.186.04589-.10693-.07666.03027Zm13.72558-13.30127a67.87113,67.87113,0,0,0,.04639,15.27734,12.41788,12.41788,0,0,0,.00342-3.11328c-.05957-2.37744-.22559-4.80127-.10059-7.16308a45.13829,45.13829,0,0,0,.23486-4.98535Zm.41211,17.978a4.56716,4.56716,0,0,0-.335-2.62354Zm.16748,1.08886.15381-.06152c-.12207-.30615-.19824-.72021-.32129-1.02734Zm.1377.56739-.07666.03076.09179.23047.07666-.03076Zm.19873,1.1665c.03027.07666.03027.07666.10693.04639Zm.75781-22.624c-.03564,5.26074-.63916,10.65967.03027,15.90625a35.21856,35.21856,0,0,1,.47168,4.081,18.15563,18.15563,0,0,0-.10449-3.16064c-.13476-3.23682-.26953-6.47315-.32812-9.74072-.0586-2.37745.25-4.72364.11474-7.07056Zm.74072,10.99853.03076.07666.0459-.10742Zm.001-.44482.03076.07666c.07617-.03027.07617-.03027.0459-.10693Zm.03125-.813c.07666-.03076.07666-.03076.0459-.10742C130.20386,109.37239,130.20386,109.37239,130.23462,109.44905Zm.11084,12.31738-.0918-.23047c-.0459.10792-.0459.10792-.01562.18458Zm-.05371-8.16064.10742.0459-.03027-.07666Zm.00049-.44531.10742.04638-.03076-.07666Zm.05224,9.4956.10791-.39892-.15381.061Zm.01514.26026.07666-.03028-.03027-.07666Zm2.45068,3.91455c-.05957-1.93311-.4873-3.89649-.731-5.84473a108.908,108.908,0,0,1-.64844-11.65869l-.14453-9.28027a6.55637,6.55637,0,0,0-.229-1.24268l-.15332.061c-.0664,5.6294-.31738,11.24366.168,16.91895a54.517,54.517,0,0,0,1.55371,11.03027Zm-.53222-20.50928.10693.04639-.03076-.07666Zm.07568.41406-.0459.10791.07666-.03076Zm.001-.88965-.04639.10743.07715-.03077Zm-.0459-.33691.07666-.03076-.03028-.07666Zm.00244-2.22461c.03027.07666.03027.07666.10742.0459l-.03076-.07666Zm.001-1.33447.06152.15381c-.03076-.07715-.03076-.07715.01562-.18457Zm.20605,9.43408-.18457-.01611.09229.23046Zm.07813-1.81006-.21436-.09228c-.04639.10742-.04639.10742-.01562.18408Zm-.19483-4.72461-.0459.10742.07666-.03076Zm-.00488,5.3374a.30289.30289,0,0,0,.01514.26123l.07666-.03076Zm.07959-2.69921-.07715.03076a.30526.30526,0,0,1,.01514.26074Zm.16064,7.76171-.07666.03077.06153.15332.07617-.03077Zm.061.59815-.03028-.07666c-.04638.10742-.123.13818-.09228.21533C132.6521,115.9554,132.62134,115.87825,132.698,115.84749Zm-.02979-.9668-.03076-.07666c-.07666.03076-.07666.03076-.0459.10742Zm.05957,1.93311-.10742-.0459a.30354.30354,0,0,1,.01514.26074Zm.04541.78271c.0459-.10742.0459-.10742.01514-.18457C132.81909,117.48909,132.74243,117.51985,132.77319,117.59651Zm.10547,1.8252-.07715.03027.10791.04688Zm-.0166,1.07373a.30359.30359,0,0,0,.16846.1997l.07715-.03027a.30491.30491,0,0,1-.169-.20019Z" transform="translate(-23.98413 -22.15788)"/><path class="cls-1" d="M142.93237,113.18782a7.66006,7.66006,0,0,0,.77979,2.624c.30615.76661,1.69922,3.59082,2.77344,3.1626a3.929,3.929,0,0,0,2.397-3.80176l.0459-.10791.09179.23047c.27539.69043-.124,1.47266-.10937,2.17822.69043-.7207.53808-1.54882.72314-2.42285a1.4014,1.4014,0,0,1,.30664.32276c.21436.53711-.124,1.02734-.01709,1.51806l.56788-.1372.01464.26025.18409.01563-.03028-.07666.23-.0918-.13818-.123.07715-.03027-.0459-.33789.07666-.03076.03125-.36768.12207.30664a1.05774,1.05774,0,0,0,.00146-.88916l.15332-.50586a4.52931,4.52931,0,0,1-2.9038,5.42676c-4.68018,1.86719-8.728-.25342-10.5337-4.78027a19.68712,19.68712,0,0,1-.44873-11.82715,8.89562,8.89562,0,0,1,5.51319-6.46778,10.37258,10.37258,0,0,1,2.19336-.519l-2.667-2.227.55274-.398a7.63459,7.63459,0,0,1,7.89551,4.85474C153.00317,104.54622,147.99634,111.16829,142.93237,113.18782Zm-4.918-6.30859-.07666.47558.1836.01514Zm.01563-.18409-.0459.10743.07666-.03077Zm.06055,1.4878c-.07715.03076-.07715.03076-.04639.10742l.07666-.03076Zm.34082-4.04932.1997-.16846a.30443.30443,0,0,0-.1997.16846l-.13868.76758-.06152.291.03027.07667a7.09369,7.09369,0,0,0-.23046.98144.99426.99426,0,0,0,.23046-.98144l.03125-.36768.21485-.353C138.44653,104.39485,138.49292,104.28694,138.4314,104.13362Zm1.05615,2.42481.03076.07666-.06152-.15381Zm.03174-.813c.0459-.10742.01513-.18408-.0459-.33789A.62178.62178,0,0,0,139.51929,105.74544Zm.123-.583.07666-.03076a.62535.62535,0,0,0,.03125-.36768C139.70386,104.87141,139.719,105.13167,139.64233,105.16243Zm1.58106-1.60889c-.64551,1.50293-1.2461,4.23194-.60352,5.84326C140.48364,107.495,141.20679,105.51692,141.22339,103.55354Zm-.72656,6.42627a.616.616,0,0,0,.07617.41455l.07666-.03076Zm.773-6.53369.24609-.27539-.03076-.07715-.0459.10742C141.2854,103.26253,141.31616,103.33919,141.26978,103.44612Zm1.20556,6.36719c2.64014-1.40869,4.90039-7.55811,3.79883-10.31983l-.12207-.30664C143.00562,101.33089,141.74292,106.19221,142.47534,109.81331Zm4.89942-6.22315a.49661.49661,0,0,0,.04589.33741l-.16894.24511.19922-.16845-.03028-.07666Zm.20019-1.0581-.03076.36816.03076.07666A.87781.87781,0,0,0,147.575,102.53206Zm.04688-.55225a.17843.17843,0,0,0,.09228-.21484l-.15381.06152Zm.98046,1.12061.07667-.03028-.01514-.26123Zm.55079,1.82617c.04589-.10742.12255-.13818.09179-.21484Zm.36816-.41406a.30079.30079,0,0,0-.19922.16894A.30452.30452,0,0,0,149.52124,104.51253Zm-.03076-.07666a7.07167,7.07167,0,0,0,.4331-3.37451A15.516,15.516,0,0,0,149.49048,104.43587Z" transform="translate(-23.98413 -22.15788)"/><path class="cls-2" d="M218.17914,132.73134l-5.87341-7.01084c-3.67249-4.3905-7.38755-8.74087-11.0839-13.10888l.58368-48.90351.04279-3.58517-3.7403-.07709-23.32446-.48074-4.01929-.08286-.15817,4.172-.40781,10.75443q-2.54672-2.94192-5.09195-5.8852c-4.17947-4.82287-8.32711-9.67486-12.55368-14.45459q-12.62356-14.39058-25.98694-28.1037l-3.69912-3.80728-3.75833,3.362q-4.69648,4.20127-9.36463,8.43537l-4.66974,4.2323-4.64807,4.25747q-9.30318,8.50686-18.48434,17.15558-9.18049,8.64954-18.239,17.441C60.6886,79.97856,57.67661,82.91777,54.7016,85.9c-2.98578,2.96973-5.95926,5.95373-8.88892,8.98868l.715.83163c3.44009-2.44125,6.83636-4.93347,10.22037-7.44,3.39474-2.494,6.7525-5.031,10.10833-7.57028q10.05831-7.62846,19.97959-15.41635,9.91292-7.7976,19.73419-15.70173l4.90655-3.95684,4.88492-3.982q2.82477-2.29362,5.63321-4.60629,10.922,12.50066,22.36646,24.52289c4.39,4.63006,8.85888,9.18789,13.296,13.77484,4.44006,4.58423,8.89123,9.15829,13.29583,13.775l7.84531,8.22309.05429-11.19672.08881-18.30969,15.58526-.32126,1.43219,46.06692.035,1.12689.67865.64786c4.40933,4.2092,8.79141,8.444,13.22308,12.63217l6.64243,6.28705,6.67907,6.25254.79865-.75168Z" transform="translate(-23.98413 -22.15788)"/><path class="cls-2" d="M181.805,113.2639q-4.9513-5.282-9.94839-10.5195l-4.9856-5.24869-5.01056-5.22433c-6.667-6.97916-13.39352-13.90042-20.10989-20.83151L131.63293,61.08516q-5.06065-5.17557-10.14743-10.32568l-.71264-.71805-.76377.6315c-3.916,3.238-7.85357,6.44928-11.75177,9.70913-3.89987,3.25785-7.821,6.48948-11.7019,9.77063l-5.83325,4.90717-5.8031,4.94428c-3.86627,3.29922-7.7421,6.5867-11.57038,9.93273,4.06357-3.056,8.07962-6.17062,12.1052-9.27346l6.0347-4.65882,6.00457-4.69592c4.0109-3.12094,7.98169-6.29135,11.9737-9.43561,3.72946-2.93429,7.42541-5.90991,11.13586-8.86767q4.66282,4.86987,9.36514,9.70132l10.08326,10.38818c6.75088,6.89753,13.49167,13.80484,20.29187,20.6543l5.08987,5.14713,5.11487,5.12274q5.10956,5.128,10.2525,10.22339,5.1265,5.11143,10.3201,10.15753c3.44782,3.37826,6.89374,6.75836,10.38318,10.0961-3.2442-3.57657-6.53189-7.11075-9.81769-10.64679Q186.76417,118.53832,181.805,113.2639Z" transform="translate(-23.98413 -22.15788)"/><path class="cls-2" d="M122.1521,143.49934v-1.24023h5.10742v1.24023l-1.5918.27344V154.974l1.5918.27344v1.23047H122.1521v-1.23047l1.5918-.27344V143.77278Z" transform="translate(-23.98413 -22.15788)"/><path class="cls-2" d="M128.51929,155.24739l1.59179-.27344v-7.54882l-1.59179-.27344v-1.24024h3.31054l.13672,1.57227a3.8325,3.8325,0,0,1,1.32324-1.30371,3.53225,3.53225,0,0,1,1.81153-.46387,3.44851,3.44851,0,0,1,2.64648,1.001,4.39477,4.39477,0,0,1,.9375,3.09082v5.166l1.5918.27344v1.23047h-5.10742v-1.23047l1.59179-.27344V149.847a2.85884,2.85884,0,0,0-.55175-1.98242,2.21,2.21,0,0,0-1.68457-.58594,2.71023,2.71023,0,0,0-1.46973.40039,2.92519,2.92519,0,0,0-1.02051,1.09375V154.974l1.5918.27344v1.23047h-5.10742Z" transform="translate(-23.98413 -22.15788)"/><path class="cls-2" d="M149.75952,149.23177h-1.44531l-.3125-1.26954a2.60138,2.60138,0,0,0-.88379-.53222,3.412,3.412,0,0,0-1.20605-.2002,2.219,2.219,0,0,0-1.52344.44922,1.40791,1.40791,0,0,0-.49805,1.084,1.20873,1.20873,0,0,0,.43945.98632,4.562,4.562,0,0,0,1.78711.64454,7.698,7.698,0,0,1,2.97852,1.167,2.35255,2.35255,0,0,1,.97656,1.97754,2.73045,2.73045,0,0,1-1.13769,2.27539,4.76487,4.76487,0,0,1-2.97364.86914,7.728,7.728,0,0,1-2.1582-.27832,5.74442,5.74442,0,0,1-1.709-.80567l-.00977-2.41211h1.44531l.36133,1.416a2.01134,2.01134,0,0,0,.90332.43945,4.98883,4.98883,0,0,0,1.167.13672,2.721,2.721,0,0,0,1.60645-.415,1.27994,1.27994,0,0,0,.58105-1.08886,1.3098,1.3098,0,0,0-.4834-1.04493,4.54273,4.54273,0,0,0-1.83105-.71289,7.68169,7.68169,0,0,1-2.90039-1.14258,2.30446,2.30446,0,0,1-.97656-1.95312,2.75906,2.75906,0,0,1,1.09863-2.19727,4.33642,4.33642,0,0,1,2.85645-.9082,6.9318,6.9318,0,0,1,2.1582.3125,4.5,4.5,0,0,1,1.5918.86914Z" transform="translate(-23.98413 -22.15788)"/><path class="cls-2" d="M159.42749,154.91536a3.56811,3.56811,0,0,1-1.28418,1.30859,3.529,3.529,0,0,1-1.81152.459,3.38211,3.38211,0,0,1-2.68555-1.10352,5.12359,5.12359,0,0,1-.9668-3.4375v-4.71679l-1.21093-.27344v-1.24024h3.13476v6.25a3.93389,3.93389,0,0,0,.498,2.32422,1.8514,1.8514,0,0,0,1.55273.63477,3.16242,3.16242,0,0,0,1.69434-.415,2.59951,2.59951,0,0,0,1.01074-1.17676v-6.10351l-1.416-.27344v-1.24024H161.283v9.0625l1.21094.27344v1.23047h-2.93946Z" transform="translate(-23.98413 -22.15788)"/><path class="cls-2" d="M164.01733,147.15169v-1.24024h3.31055l.18555,1.53321a3.68894,3.68894,0,0,1,1.1084-1.26953,2.57461,2.57461,0,0,1,1.50879-.459,3.25572,3.25572,0,0,1,.46386.03418,2.58494,2.58494,0,0,1,.36621.07324l-.2539,1.78711-1.09375-.05859a2.20123,2.20123,0,0,0-1.2793.35644,2.30779,2.30779,0,0,0-.80078,1.001V154.974l1.5918.27344v1.23047h-5.10743v-1.23047l1.5918-.27344v-7.54882Z" transform="translate(-23.98413 -22.15788)"/><path class="cls-2" d="M179.18335,156.47786q-.08788-.42993-.13672-.77148-.04906-.342-.06836-.6836a4.65989,4.65989,0,0,1-1.3916,1.18652,3.98632,3.98632,0,0,1-4.292-.332,2.961,2.961,0,0,1-.85938-2.2705,2.6297,2.6297,0,0,1,1.21582-2.31934,5.92646,5.92646,0,0,1,3.335-.81543h1.98243v-1.23047a1.904,1.904,0,0,0-.58594-1.46973,2.3104,2.3104,0,0,0-1.63086-.542,3.99956,3.99956,0,0,0-1.27442.18555,2.39359,2.39359,0,0,0-.89355.50781l-.20508,1.11328h-1.48437v-2.05078a5.70323,5.70323,0,0,1,1.748-.92285,6.91516,6.91516,0,0,1,2.22657-.34668,4.42757,4.42757,0,0,1,2.91015.918,3.21124,3.21124,0,0,1,1.11328,2.62695V154.349q0,.20508.00489.40039c.00341.13037.01123.26026.02441.39063l.78125.10742v1.23047Zm-3.0957-1.40625a3.418,3.418,0,0,0,1.748-.459,2.84953,2.84953,0,0,0,1.13282-1.10352v-1.73828h-2.05079a2.92581,2.92581,0,0,0-1.87011.54687,1.64411,1.64411,0,0,0-.68848,1.32813,1.31438,1.31438,0,0,0,.42969,1.05957A1.96311,1.96311,0,0,0,176.08765,155.07161Z" transform="translate(-23.98413 -22.15788)"/><path class="cls-2" d="M183.02124,155.24739l1.5918-.27344v-7.54882l-1.5918-.27344v-1.24024h3.31055l.13672,1.57227a3.83242,3.83242,0,0,1,1.32324-1.30371,3.53222,3.53222,0,0,1,1.81152-.46387,3.44854,3.44854,0,0,1,2.64649,1.001,4.39477,4.39477,0,0,1,.9375,3.09082v5.166l1.59179.27344v1.23047h-5.10742v-1.23047l1.5918-.27344V149.847a2.85879,2.85879,0,0,0-.55176-1.98242,2.21,2.21,0,0,0-1.68457-.58594,2.71026,2.71026,0,0,0-1.46973.40039,2.92509,2.92509,0,0,0-1.0205,1.09375V154.974l1.59179.27344v1.23047h-5.10742Z" transform="translate(-23.98413 -22.15788)"/><path class="cls-2" d="M200.92163,155.179a2.593,2.593,0,0,0,1.68457-.59082,1.80392,1.80392,0,0,0,.72754-1.45019h1.72852l.01953.05859a2.96226,2.96226,0,0,1-1.21582,2.42676,4.44591,4.44591,0,0,1-2.94434,1.05957,4.26307,4.26307,0,0,1-3.52051-1.50391,5.8172,5.8172,0,0,1-1.21582-3.7793v-.41015a5.79112,5.79112,0,0,1,1.22071-3.76465,4.26,4.26,0,0,1,3.51562-1.50879,5.898,5.898,0,0,1,2.28027.41992,4.60511,4.60511,0,0,1,1.67481,1.15235l.08789,2.34375h-1.5332l-.41993-1.66016a2.5499,2.5499,0,0,0-.8789-.53711,3.3736,3.3736,0,0,0-1.21094-.20508,2.31782,2.31782,0,0,0-2.16309,1.08887,5.12873,5.12873,0,0,0-.64941,2.6709v.41015a5.19011,5.19011,0,0,0,.64453,2.7002A2.32243,2.32243,0,0,0,200.92163,155.179Z" transform="translate(-23.98413 -22.15788)"/><path class="cls-2" d="M211.781,156.68294a4.45714,4.45714,0,0,1-3.51075-1.46973,5.53294,5.53294,0,0,1-1.30371-3.81348V150.97a5.4195,5.4195,0,0,1,1.34278-3.75489,4.13519,4.13519,0,0,1,3.17871-1.499,4.00506,4.00506,0,0,1,3.22754,1.28906,5.12081,5.12081,0,0,1,1.09863,3.4375v1.20118h-6.85547l-.0293.04882a4.17777,4.17777,0,0,0,.77149,2.50489,2.45744,2.45744,0,0,0,2.08008.98144,4.84077,4.84077,0,0,0,1.71386-.27832,3.93373,3.93373,0,0,0,1.27442-.7666l.75195,1.25a4.60911,4.60911,0,0,1-1.499.92285A5.99274,5.99274,0,0,1,211.781,156.68294Zm-.293-9.45313a2.084,2.084,0,0,0-1.65039.81543,3.86277,3.86277,0,0,0-.83985,2.0459l.01953.04883h4.87305v-.25391a2.94787,2.94787,0,0,0-.60547-1.89453A2.15707,2.15707,0,0,0,211.488,147.22981Z" transform="translate(-23.98413 -22.15788)"/></svg>